<svg xmlns="http://www.w3.org/2000/svg" xmlns:xlink="http://www.w3.org/1999/xlink" width="1920" height="600" viewBox="0 0 1920 600">
  <defs>
    <linearGradient id="linear-gradient" x1="0.5" x2="0.5" y2="1" gradientUnits="objectBoundingBox">
      <stop offset="0" stop-color="#416ad9"/>
      <stop offset="1" stop-color="#21356d"/>
    </linearGradient>
    <clipPath id="clip-path">
      <rect id="Rectangle_47" data-name="Rectangle 47" width="1920" height="600" transform="translate(0 2112)" fill="url(#linear-gradient)"/>
    </clipPath>
  </defs>
  <g id="Group_3150" data-name="Group 3150" transform="translate(0 -2112)">
    <rect id="Rectangle_41" data-name="Rectangle 41" width="1920" height="600" transform="translate(0 2112)" fill="url(#linear-gradient)"/>
    <g id="Mask_Group_1" data-name="Mask Group 1" clip-path="url(#clip-path)">
      <g id="Group_3119" data-name="Group 3119" transform="translate(-7236.506 2734.655)" opacity="0.4" style="mix-blend-mode: lighten;isolation: isolate">
        <g id="Group_3077" data-name="Group 3077" transform="translate(8192.22 -618.304)" opacity="0.49" style="mix-blend-mode: overlay;isolation: isolate">
          <g id="Group_3051" data-name="Group 3051" transform="translate(358.042 419.405)">
            <g id="Group_3049" data-name="Group 3049" transform="translate(4.935 2.478)">
              <path id="Path_1170" data-name="Path 1170" d="M8324.036-465.771h633.146a.58.58,0,0,1,.58.581.58.58,0,0,1-.58.581H8324.036a.581.581,0,0,1-.582-.581A.581.581,0,0,1,8324.036-465.771Z" transform="translate(-8323.454 465.771)" fill="#50e6ff"/>
            </g>
            <g id="Group_3050" data-name="Group 3050">
              <path id="Path_1171" data-name="Path 1171" d="M8324.731-466.667a3.061,3.061,0,0,1,3.057,3.059,3.061,3.061,0,0,1-3.057,3.059,3.062,3.062,0,0,1-3.061-3.059A3.062,3.062,0,0,1,8324.731-466.667Zm0,4.959a1.9,1.9,0,0,0,1.9-1.9,1.9,1.9,0,0,0-1.9-1.9,1.9,1.9,0,0,0-1.9,1.9A1.9,1.9,0,0,0,8324.731-461.708Z" transform="translate(-8321.671 466.667)" fill="#50e6ff"/>
            </g>
          </g>
          <g id="Group_3052" data-name="Group 3052" transform="translate(210.712 357.01)">
            <path id="Path_1172" data-name="Path 1172" d="M8268.981-489.226H8452.1a.583.583,0,0,1,.41.169l50.023,50.023h211.8l33.313-33.306a.568.568,0,0,1,.41-.172H9054.4a.581.581,0,0,1,.58.581.58.58,0,0,1-.58.578H8748.29l-33.309,33.309a.582.582,0,0,1-.41.172H8502.292a.589.589,0,0,1-.41-.172l-50.023-50.023H8268.981a.58.58,0,0,1-.578-.581A.579.579,0,0,1,8268.981-489.226Z" transform="translate(-8268.403 489.226)" fill="#50e6ff"/>
          </g>
          <g id="Group_3053" data-name="Group 3053" transform="translate(91.376 338.41)">
            <path id="Path_1173" data-name="Path 1173" d="M8225.838-495.951h302.449a.583.583,0,0,1,.41.169l50.023,50.026h211.8l33.313-33.309a.568.568,0,0,1,.41-.171h306.342a.58.58,0,0,1,.58.581.58.58,0,0,1-.58.578H8824.48l-33.309,33.309a.57.57,0,0,1-.41.172H8578.482a.577.577,0,0,1-.41-.172l-50.023-50.023H8225.838a.583.583,0,0,1-.582-.578A.583.583,0,0,1,8225.838-495.951Z" transform="translate(-8225.256 495.951)" fill="#50e6ff"/>
          </g>
          <g id="Group_3054" data-name="Group 3054" transform="translate(326.216 319.809)">
            <path id="Path_1174" data-name="Path 1174" d="M8310.744-502.676h67.609a.585.585,0,0,1,.41.171l50.023,50.023h211.8l33.313-33.309a.579.579,0,0,1,.41-.171h306.342a.58.58,0,0,1,.58.581.58.58,0,0,1-.58.581H8674.547l-33.309,33.306a.571.571,0,0,1-.41.171H8428.549a.578.578,0,0,1-.41-.171l-50.023-50.02h-67.371a.58.58,0,0,1-.58-.581A.58.58,0,0,1,8310.744-502.676Z" transform="translate(-8310.164 502.676)" fill="#50e6ff"/>
          </g>
          <g id="Group_3055" data-name="Group 3055" transform="translate(235.61 388.9)">
            <path id="Path_1175" data-name="Path 1175" d="M8277.984-477.7h54.854a.566.566,0,0,1,.408.172l53.7,53.693h140.371a.579.579,0,0,1,.41.169l28.25,28.25H8658.76l27.5-27.506a.594.594,0,0,1,.41-.169H9038.5a.58.58,0,0,1,.58.578.581.581,0,0,1-.58.581H8686.912l-27.506,27.506a.572.572,0,0,1-.408.169H8555.734a.586.586,0,0,1-.41-.169l-28.25-28.25H8386.7a.57.57,0,0,1-.408-.172L8332.6-476.537h-54.617a.578.578,0,0,1-.578-.578A.579.579,0,0,1,8277.984-477.7Z" transform="translate(-8277.406 477.696)" fill="#50e6ff"/>
          </g>
          <g id="Group_3056" data-name="Group 3056" transform="translate(98.52 115.861)">
            <path id="Path_1176" data-name="Path 1176" d="M8457.563-576.414H8712.3a.582.582,0,0,1,.41.172l63.516,63.512h349.8a.58.58,0,0,1,.58.581.578.578,0,0,1-.58.578H8775.985a.58.58,0,0,1-.41-.169l-63.512-63.515H8457.8L8399.347-516.8a.588.588,0,0,1-.408.172H8228.417a.58.58,0,0,1-.578-.581.58.58,0,0,1,.578-.581H8398.7l58.455-58.453A.579.579,0,0,1,8457.563-576.414Z" transform="translate(-8227.839 576.414)" fill="#50e6ff"/>
          </g>
          <g id="Group_3057" data-name="Group 3057" transform="translate(55.665 242.742)">
            <path id="Path_1177" data-name="Path 1177" d="M8433.738-530.54H8545.25a.593.593,0,0,1,.41.169l85.916,85.921h159.33l34.051-34.053a.579.579,0,0,1,.41-.169h328.018a.58.58,0,0,1,.58.578.58.58,0,0,1-.58.581H8825.607l-34.055,34.05a.566.566,0,0,1-.408.172H8631.336a.577.577,0,0,1-.41-.172l-85.918-85.918H8433.975l-32.609,32.609a.572.572,0,0,1-.408.169H8212.926a.581.581,0,0,1-.58-.578.582.582,0,0,1,.58-.581h187.795l32.609-32.609A.575.575,0,0,1,8433.738-530.54Z" transform="translate(-8212.346 530.54)" fill="#50e6ff"/>
          </g>
          <g id="Group_3058" data-name="Group 3058" transform="translate(3.673 294.911)">
            <path id="Path_1178" data-name="Path 1178" d="M8194.128-511.678h404.141a.574.574,0,0,1,.41.172l50.023,50.023h180.059l29.391-29.39a.582.582,0,0,1,.41-.172h328.018a.58.58,0,0,1,.58.581.58.58,0,0,1-.58.578H8858.8l-29.391,29.393a.583.583,0,0,1-.41.169H8648.462a.58.58,0,0,1-.41-.169l-50.023-50.026h-403.9a.58.58,0,0,1-.58-.578A.58.58,0,0,1,8194.128-511.678Z" transform="translate(-8193.548 511.678)" fill="#50e6ff"/>
          </g>
          <g id="Group_3059" data-name="Group 3059" transform="translate(172.025 426.51)">
            <path id="Path_1179" data-name="Path 1179" d="M8254.993-464.1h115.131a.583.583,0,0,1,.41.169l43.912,43.911h117.6a.6.6,0,0,1,.414.169l45.658,45.659h173.607l42.387-42.384a.583.583,0,0,1,.412-.172h284.568a.58.58,0,0,1,.58.581.58.58,0,0,1-.58.581H8794.763L8752.378-373.2a.582.582,0,0,1-.41.172H8577.88a.594.594,0,0,1-.412-.172L8531.81-418.86h-117.6a.587.587,0,0,1-.412-.169l-43.91-43.911H8254.993a.58.58,0,0,1-.578-.581A.578.578,0,0,1,8254.993-464.1Z" transform="translate(-8254.415 464.098)" fill="#50e6ff"/>
          </g>
          <g id="Group_3060" data-name="Group 3060" transform="translate(215.644 64.677)">
            <path id="Path_1180" data-name="Path 1180" d="M8343.5-594.92H8677.4a.588.588,0,0,1,.412.169l40.3,40.3h333.137a.58.58,0,0,1,.58.578.58.58,0,0,1-.58.581H8717.87a.577.577,0,0,1-.408-.172l-40.3-40.3H8343.743l-39.113,39.112a.57.57,0,0,1-.408.172h-33.451a.583.583,0,0,1-.584-.581.582.582,0,0,1,.584-.578h33.215l39.107-39.115A.58.58,0,0,1,8343.5-594.92Z" transform="translate(-8270.187 594.92)" fill="#50e6ff"/>
          </g>
          <g id="Group_3061" data-name="Group 3061" transform="translate(140.183 186.241)">
            <path id="Path_1181" data-name="Path 1181" d="M8390.489-550.968h251.018a.582.582,0,0,1,.41.172l52.953,52.949h404.555a.58.58,0,0,1,.58.581.58.58,0,0,1-.58.578h-404.8a.579.579,0,0,1-.408-.169l-52.953-52.949H8390.729l-41.268,41.269a.585.585,0,0,1-.408.169H8243.481a.577.577,0,0,1-.578-.581.577.577,0,0,1,.578-.578h105.332l41.268-41.269A.588.588,0,0,1,8390.489-550.968Z" transform="translate(-8242.903 550.968)" fill="#50e6ff"/>
          </g>
          <g id="Group_3062" data-name="Group 3062" transform="translate(254.752 459.393)">
            <path id="Path_1182" data-name="Path 1182" d="M8284.907-452.209h27.266a.591.591,0,0,1,.412.169l28.809,28.809H8460.56a.58.58,0,0,1,.41.169l48.859,48.859h222.564l20.8-20.81a.6.6,0,0,1,.412-.172h272.668a.582.582,0,0,1,.58.581.58.58,0,0,1-.58.581H8753.851l-20.809,20.81a.586.586,0,0,1-.408.169H8509.585a.581.581,0,0,1-.406-.169l-48.857-48.859H8341.153a.583.583,0,0,1-.41-.169l-28.811-28.809h-27.025a.581.581,0,0,1-.582-.581A.58.58,0,0,1,8284.907-452.209Z" transform="translate(-8284.325 452.209)" fill="#50e6ff"/>
          </g>
          <g id="Group_3063" data-name="Group 3063" transform="translate(106.85 226.714)">
            <path id="Path_1183" data-name="Path 1183" d="M8391.538-536.335h163.525a.589.589,0,0,1,.408.172l74.377,74.376h89.391l35.543-35.541a.579.579,0,0,1,.408-.169h365.516a.58.58,0,0,1,.58.578.58.58,0,0,1-.58.581H8755.431L8719.89-460.8a.582.582,0,0,1-.41.172h-89.871a.582.582,0,0,1-.41-.172l-74.375-74.374H8391.774l-30.258,30.255a.569.569,0,0,1-.408.172h-129.68a.581.581,0,0,1-.578-.581.581.581,0,0,1,.578-.578H8360.87l30.258-30.258A.579.579,0,0,1,8391.538-536.335Z" transform="translate(-8230.851 536.335)" fill="#50e6ff"/>
          </g>
          <g id="Group_3064" data-name="Group 3064" transform="translate(162.205 85.21)">
            <path id="Path_1184" data-name="Path 1184" d="M8397.857-587.5h288.961a.586.586,0,0,1,.408.169l57.266,57.267h340.873a.58.58,0,0,1,.58.578.581.581,0,0,1-.58.581H8744.252a.59.59,0,0,1-.41-.169l-57.264-57.267H8398.1L8343.959-532.2a.586.586,0,0,1-.41.169h-92.105a.579.579,0,0,1-.578-.578.58.58,0,0,1,.578-.581h91.867l54.139-54.141A.575.575,0,0,1,8397.857-587.5Z" transform="translate(-8250.865 587.496)" fill="#50e6ff"/>
          </g>
          <g id="Group_3065" data-name="Group 3065" transform="translate(167.064 424.029)">
            <path id="Path_1185" data-name="Path 1185" d="M8255.679-464.995a3.062,3.062,0,0,1,3.063,3.059,3.062,3.062,0,0,1-3.062,3.059,3.061,3.061,0,0,1-3.057-3.059A3.061,3.061,0,0,1,8255.679-464.995Zm0,4.959a1.9,1.9,0,0,0,1.9-1.9,1.9,1.9,0,0,0-1.9-1.9,1.9,1.9,0,0,0-1.9,1.9A1.9,1.9,0,0,0,8255.679-460.036Z" transform="translate(-8252.622 464.995)" fill="#50e6ff"/>
          </g>
          <g id="Group_3066" data-name="Group 3066" transform="translate(249.793 456.913)">
            <path id="Path_1186" data-name="Path 1186" d="M8285.591-453.106a3.065,3.065,0,0,1,3.063,3.059,3.067,3.067,0,0,1-3.062,3.062,3.066,3.066,0,0,1-3.059-3.062A3.064,3.064,0,0,1,8285.591-453.106Zm0,4.959a1.9,1.9,0,0,0,1.9-1.9,1.9,1.9,0,0,0-1.9-1.9,1.9,1.9,0,0,0-1.9,1.9A1.9,1.9,0,0,0,8285.591-448.147Z" transform="translate(-8282.532 453.106)" fill="#50e6ff"/>
          </g>
          <path id="Path_1187" data-name="Path 1187" d="M8266.942-487.435a2.476,2.476,0,0,1,2.477-2.478,2.481,2.481,0,0,1,2.482,2.478,2.482,2.482,0,0,1-2.482,2.481A2.477,2.477,0,0,1,8266.942-487.435Z" transform="translate(-8060.273 845.023)" fill="#50e6ff"/>
          <path id="Path_1188" data-name="Path 1188" d="M8250.085-566.015a2.478,2.478,0,0,1,2.479-2.478,2.481,2.481,0,0,1,2.48,2.478,2.481,2.481,0,0,1-2.48,2.481A2.479,2.479,0,0,1,8250.085-566.015Z" transform="translate(-8090.041 706.263)" fill="#50e6ff"/>
          <circle id="Ellipse_1" data-name="Ellipse 1" cx="2.48" cy="2.48" r="2.48" transform="translate(192.343 191.026)" fill="#50e6ff"/>
          <path id="Path_1189" data-name="Path 1189" d="M8269.5-578.924a2.481,2.481,0,0,1,2.482-2.481,2.481,2.481,0,0,1,2.477,2.481,2.481,2.481,0,0,1-2.477,2.481A2.481,2.481,0,0,1,8269.5-578.924Z" transform="translate(-8055.754 683.462)" fill="#50e6ff"/>
          <g id="Group_3067" data-name="Group 3067" transform="translate(475.461 39.344)">
            <path id="Path_1190" data-name="Path 1190" d="M8367.184-604.079a3.062,3.062,0,0,1,3.059,3.059,3.063,3.063,0,0,1-3.059,3.059,3.063,3.063,0,0,1-3.061-3.059A3.063,3.063,0,0,1,8367.184-604.079Zm0,4.959a1.9,1.9,0,0,0,1.9-1.9,1.9,1.9,0,0,0-1.9-1.9,1.9,1.9,0,0,0-1.9,1.9A1.9,1.9,0,0,0,8367.184-599.12Z" transform="translate(-8364.123 604.079)" fill="#50e6ff"/>
          </g>
          <g id="Group_3068" data-name="Group 3068" transform="translate(615.828)">
            <path id="Path_1191" data-name="Path 1191" d="M8417.937-618.3a3.063,3.063,0,0,1,3.059,3.059,3.063,3.063,0,0,1-3.059,3.059,3.065,3.065,0,0,1-3.062-3.059A3.065,3.065,0,0,1,8417.937-618.3Zm0,4.959a1.9,1.9,0,0,0,1.9-1.9,1.9,1.9,0,0,0-1.9-1.9,1.9,1.9,0,0,0-1.9,1.9A1.9,1.9,0,0,0,8417.937-613.345Z" transform="translate(-8414.874 618.304)" fill="#50e6ff"/>
          </g>
          <path id="Path_1192" data-name="Path 1192" d="M8224.569-494.157a2.48,2.48,0,0,1,2.48-2.481,2.479,2.479,0,0,1,2.479,2.481,2.478,2.478,0,0,1-2.479,2.478A2.48,2.48,0,0,1,8224.569-494.157Z" transform="translate(-8135.093 833.148)" fill="#50e6ff"/>
          <g id="Group_3069" data-name="Group 3069" transform="translate(321.711 317.331)">
            <path id="Path_1193" data-name="Path 1193" d="M8311.594-503.572a3.064,3.064,0,0,1,3.063,3.059,3.064,3.064,0,0,1-3.062,3.059,3.064,3.064,0,0,1-3.059-3.059A3.064,3.064,0,0,1,8311.594-503.572Zm0,4.959a1.9,1.9,0,0,0,1.9-1.9,1.9,1.9,0,0,0-1.9-1.9,1.9,1.9,0,0,0-1.9,1.9A1.9,1.9,0,0,0,8311.594-498.613Z" transform="translate(-8308.535 503.572)" fill="#50e6ff"/>
          </g>
          <g id="Group_3070" data-name="Group 3070" transform="translate(101.891 254.679)">
            <path id="Path_1194" data-name="Path 1194" d="M8232.118-526.224a3.063,3.063,0,0,1,3.061,3.059,3.063,3.063,0,0,1-3.061,3.059,3.063,3.063,0,0,1-3.061-3.059A3.063,3.063,0,0,1,8232.118-526.224Zm0,4.959a1.9,1.9,0,0,0,1.9-1.9,1.9,1.9,0,0,0-1.9-1.9,1.9,1.9,0,0,0-1.9,1.9A1.9,1.9,0,0,0,8232.118-521.265Z" transform="translate(-8229.058 526.224)" fill="#50e6ff"/>
          </g>
          <path id="Path_1195" data-name="Path 1195" d="M8192.219-509.884a2.484,2.484,0,0,1,2.482-2.481,2.479,2.479,0,0,1,2.477,2.481,2.476,2.476,0,0,1-2.477,2.478A2.481,2.481,0,0,1,8192.219-509.884Z" transform="translate(-8192.219 805.376)" fill="#50e6ff"/>
          <path id="Path_1196" data-name="Path 1196" d="M8211.086-516.871a2.484,2.484,0,0,1,2.482-2.481,2.48,2.48,0,0,1,2.477,2.481,2.48,2.48,0,0,1-2.477,2.481A2.484,2.484,0,0,1,8211.086-516.871Z" transform="translate(-8158.902 793.038)" fill="#50e6ff"/>
          <circle id="Ellipse_2" data-name="Ellipse 2" cx="2.48" cy="2.48" r="2.48" transform="translate(231.961 387.001)" fill="#50e6ff"/>
          <path id="Path_1197" data-name="Path 1197" d="M8404.252-416.3a2.481,2.481,0,0,1,2.482-2.478,2.477,2.477,0,0,1,2.477,2.478,2.48,2.48,0,0,1-2.477,2.481A2.484,2.484,0,0,1,8404.252-416.3Z" transform="translate(-7817.8 970.642)" fill="#50e6ff"/>
          <g id="Group_3071" data-name="Group 3071" transform="translate(135.594 225.45)">
            <path id="Path_1198" data-name="Path 1198" d="M8244.3-536.792a3.065,3.065,0,0,1,3.061,3.059,3.065,3.065,0,0,1-3.061,3.062,3.065,3.065,0,0,1-3.059-3.062A3.065,3.065,0,0,1,8244.3-536.792Zm0,4.959a1.9,1.9,0,0,0,1.9-1.9,1.9,1.9,0,0,0-1.9-1.9,1.9,1.9,0,0,0-1.9,1.9A1.9,1.9,0,0,0,8244.3-531.833Z" transform="translate(-8241.243 536.792)" fill="#50e6ff"/>
          </g>
          <g id="Group_3072" data-name="Group 3072" transform="translate(93.561 172.099)">
            <path id="Path_1199" data-name="Path 1199" d="M8229.106-556.081a3.063,3.063,0,0,1,3.059,3.062,3.063,3.063,0,0,1-3.059,3.059,3.063,3.063,0,0,1-3.061-3.059A3.064,3.064,0,0,1,8229.106-556.081Zm0,4.962a1.9,1.9,0,0,0,1.9-1.9,1.9,1.9,0,0,0-1.9-1.9,1.9,1.9,0,0,0-1.9,1.9A1.9,1.9,0,0,0,8229.106-551.119Z" transform="translate(-8226.046 556.081)" fill="#50e6ff"/>
          </g>
          <g id="Group_3073" data-name="Group 3073" transform="translate(196.127 143.202)">
            <path id="Path_1200" data-name="Path 1200" d="M8382.153-566.529h235.926a.586.586,0,0,1,.41.172l69.428,69.428h375.791a.58.58,0,0,1,.58.581.58.58,0,0,1-.58.578H8687.677a.586.586,0,0,1-.41-.169l-69.428-69.428H8382.392l-49.5,49.495a.57.57,0,0,1-.408.172H8263.71a.58.58,0,0,1-.58-.581.58.58,0,0,1,.58-.578h68.537l49.5-49.5A.582.582,0,0,1,8382.153-566.529Z" transform="translate(-8263.13 566.529)" fill="#50e6ff"/>
          </g>
          <g id="Group_3074" data-name="Group 3074" transform="translate(589.644 527.826)">
            <path id="Path_1201" data-name="Path 1201" d="M8560.187-427.467h252.281a.581.581,0,0,1,.58.581.58.58,0,0,1-.58.578H8560.427l-25.67,25.77a.593.593,0,0,1-.41.171H8405.985a.58.58,0,0,1-.578-.581.58.58,0,0,1,.578-.578H8534.1l25.668-25.769A.583.583,0,0,1,8560.187-427.467Z" transform="translate(-8405.407 427.467)" fill="#50e6ff"/>
          </g>
          <g id="Group_3075" data-name="Group 3075" transform="translate(480.177 23.955)">
            <path id="Path_1202" data-name="Path 1202" d="M8467.839-609.643h63.486a.594.594,0,0,1,.412.172l39.107,39.112h311.512a.58.58,0,0,1,.58.581.58.58,0,0,1-.58.578h-311.75a.577.577,0,0,1-.41-.169l-39.111-39.115h-63.01L8450.392-590.8a.579.579,0,0,1-.41.169h-83.572a.58.58,0,0,1-.58-.581.58.58,0,0,1,.58-.578h83.334l17.688-17.685A.575.575,0,0,1,8467.839-609.643Z" transform="translate(-8365.829 609.643)" fill="#50e6ff"/>
          </g>
          <g id="Group_3076" data-name="Group 3076" transform="translate(620.79 2.478)">
            <path id="Path_1203" data-name="Path 1203" d="M8417.249-617.408h47.91a.578.578,0,0,1,.408.172l29.889,29.888h297.127a.58.58,0,0,1,.58.581.58.58,0,0,1-.58.578H8495.216a.58.58,0,0,1-.41-.169l-29.885-29.888h-47.672a.581.581,0,0,1-.582-.581A.581.581,0,0,1,8417.249-617.408Z" transform="translate(-8416.667 617.408)" fill="#50e6ff"/>
          </g>
        </g>
        <g id="Group_3106" data-name="Group 3106" transform="translate(8406.292 -582.052)">
          <g id="Group_3080" data-name="Group 3080" transform="translate(358.042 131.303)">
            <g id="Group_3078" data-name="Group 3078" transform="translate(4.932 2.478)">
              <path id="Path_1204" data-name="Path 1204" d="M8401.437-556.828h401.131a.579.579,0,0,1,.58.581.579.579,0,0,1-.58.581H8401.437a.583.583,0,0,1-.584-.581A.583.583,0,0,1,8401.437-556.828Z" transform="translate(-8400.853 556.828)" fill="#50e6ff"/>
            </g>
            <g id="Group_3079" data-name="Group 3079">
              <path id="Path_1205" data-name="Path 1205" d="M8402.126-557.724a3.062,3.062,0,0,1,3.061,3.059,3.062,3.062,0,0,1-3.061,3.059,3.061,3.061,0,0,1-3.057-3.059A3.061,3.061,0,0,1,8402.126-557.724Zm0,4.959a1.906,1.906,0,0,0,1.9-1.9,1.906,1.906,0,0,0-1.9-1.9,1.9,1.9,0,0,0-1.9,1.9A1.9,1.9,0,0,0,8402.126-552.765Z" transform="translate(-8399.069 557.724)" fill="#50e6ff"/>
            </g>
          </g>
          <g id="Group_3081" data-name="Group 3081" transform="translate(210.707 148.462)">
            <path id="Path_1206" data-name="Path 1206" d="M8579.692-551.52h212.279a.563.563,0,0,1,.406.172l33.313,33.309h74.092a.579.579,0,0,1,.58.578.579.579,0,0,1-.58.581H8825.45a.577.577,0,0,1-.408-.172l-33.309-33.309h-211.8l-50.025,50.026a.579.579,0,0,1-.41.169H8346.38a.58.58,0,0,1-.58-.578.58.58,0,0,1,.58-.581h182.877l50.025-50.023A.571.571,0,0,1,8579.692-551.52Z" transform="translate(-8345.8 551.52)" fill="#50e6ff"/>
          </g>
          <g id="Group_3082" data-name="Group 3082" transform="translate(91.376 167.063)">
            <path id="Path_1207" data-name="Path 1207" d="M8655.879-544.795h212.279a.57.57,0,0,1,.406.169l33.313,33.309h74.092a.579.579,0,0,1,.58.581.579.579,0,0,1-.58.578h-74.332a.585.585,0,0,1-.408-.169l-33.309-33.309h-211.8l-50.025,50.023a.579.579,0,0,1-.41.169H8303.236a.58.58,0,0,1-.582-.578.581.581,0,0,1,.582-.581h302.207l50.025-50.023A.579.579,0,0,1,8655.879-544.795Z" transform="translate(-8302.654 544.795)" fill="#50e6ff"/>
          </g>
          <g id="Group_3083" data-name="Group 3083" transform="translate(326.213 185.663)">
            <path id="Path_1208" data-name="Path 1208" d="M8505.947-538.07h212.279a.571.571,0,0,1,.406.169l33.313,33.309h74.092a.579.579,0,0,1,.58.578.579.579,0,0,1-.58.581h-74.332a.576.576,0,0,1-.408-.172l-33.309-33.306h-211.8l-50.025,50.023a.58.58,0,0,1-.41.169h-67.609a.583.583,0,0,1-.582-.578.583.583,0,0,1,.582-.581h67.369l50.025-50.023A.58.58,0,0,1,8505.947-538.07Z" transform="translate(-8387.561 538.07)" fill="#50e6ff"/>
          </g>
          <g id="Group_3084" data-name="Group 3084" transform="translate(235.605 84.483)">
            <path id="Path_1209" data-name="Path 1209" d="M8633.134-574.652H8736.4a.586.586,0,0,1,.41.169l27.506,27.506h119.572a.579.579,0,0,1,.58.578.579.579,0,0,1-.58.581H8764.073a.574.574,0,0,1-.41-.172l-27.508-27.5H8633.372l-28.248,28.248a.576.576,0,0,1-.408.172H8464.341l-53.693,53.693a.583.583,0,0,1-.41.172h-54.855a.582.582,0,0,1-.58-.581.582.582,0,0,1,.58-.581H8410l53.693-53.693a.589.589,0,0,1,.414-.169h140.371l28.25-28.25A.575.575,0,0,1,8633.134-574.652Z" transform="translate(-8354.802 574.652)" fill="#50e6ff"/>
          </g>
          <g id="Group_3085" data-name="Group 3085" transform="translate(98.517 376.119)">
            <path id="Path_1210" data-name="Path 1210" d="M8853.382-469.21h118.027a.579.579,0,0,1,.58.581.579.579,0,0,1-.58.578H8853.62l-63.512,63.515a.578.578,0,0,1-.408.169H8534.962a.579.579,0,0,1-.41-.169L8476.1-462.992H8305.817a.58.58,0,0,1-.58-.578.58.58,0,0,1,.58-.581h170.52a.581.581,0,0,1,.41.172l58.453,58.453h254.258l63.518-63.512A.573.573,0,0,1,8853.382-469.21Z" transform="translate(-8305.237 469.21)" fill="#50e6ff"/>
          </g>
          <g id="Group_3086" data-name="Group 3086" transform="translate(55.665 226.833)">
            <path id="Path_1211" data-name="Path 1211" d="M8708.734-523.185h159.8a.591.591,0,0,1,.412.172L8903-488.96h95.768a.579.579,0,0,1,.58.581.579.579,0,0,1-.58.578h-96.006a.574.574,0,0,1-.406-.169L8868.3-522.023H8708.973l-85.92,85.918a.58.58,0,0,1-.414.172H8511.133a.578.578,0,0,1-.41-.172l-32.609-32.607H8290.322a.58.58,0,0,1-.578-.581.58.58,0,0,1,.578-.581h188.031a.582.582,0,0,1,.41.172l32.609,32.609H8622.4l85.922-85.921A.579.579,0,0,1,8708.734-523.185Z" transform="translate(-8289.744 523.185)" fill="#50e6ff"/>
          </g>
          <g id="Group_3087" data-name="Group 3087" transform="translate(3.673 210.561)">
            <path id="Path_1212" data-name="Path 1212" d="M8725.858-529.068H8906.4a.578.578,0,0,1,.408.169l29.389,29.39h95.768a.579.579,0,0,1,.58.581.579.579,0,0,1-.58.578h-96.006a.574.574,0,0,1-.406-.169l-29.391-29.39H8726.095l-50.02,50.023a.587.587,0,0,1-.41.169H8271.526a.58.58,0,0,1-.58-.578.58.58,0,0,1,.58-.581h403.9L8725.45-528.9A.572.572,0,0,1,8725.858-529.068Z" transform="translate(-8270.946 529.068)" fill="#50e6ff"/>
          </g>
          <g id="Group_3088" data-name="Group 3088" transform="translate(172.023 39.247)">
            <path id="Path_1213" data-name="Path 1213" d="M8655.276-591.007h174.09a.572.572,0,0,1,.408.169l42.387,42.387h52.318a.579.579,0,0,1,.58.578.579.579,0,0,1-.58.581h-52.559a.576.576,0,0,1-.408-.171l-42.385-42.384H8655.517l-45.66,45.659a.581.581,0,0,1-.408.172H8491.841l-43.91,43.908a.57.57,0,0,1-.408.172H8332.394a.58.58,0,0,1-.58-.581.58.58,0,0,1,.58-.578h114.889l43.912-43.911a.572.572,0,0,1,.408-.169h117.605l45.66-45.661A.585.585,0,0,1,8655.276-591.007Z" transform="translate(-8331.813 591.007)" fill="#50e6ff"/>
          </g>
          <g id="Group_3089" data-name="Group 3089" transform="translate(215.644 450.518)">
            <path id="Path_1214" data-name="Path 1214" d="M8795.269-442.311H8896.63a.579.579,0,0,1,.58.578.579.579,0,0,1-.58.581H8795.507l-40.3,40.3a.581.581,0,0,1-.408.172H8420.9a.578.578,0,0,1-.408-.172l-39.113-39.112h-33.215a.579.579,0,0,1-.578-.578.58.58,0,0,1,.578-.581h33.455a.577.577,0,0,1,.41.172l39.107,39.112h333.418l40.3-40.3A.576.576,0,0,1,8795.269-442.311Z" transform="translate(-8347.585 442.311)" fill="#50e6ff"/>
          </g>
          <g id="Group_3090" data-name="Group 3090" transform="translate(140.178 316.302)">
            <path id="Path_1215" data-name="Path 1215" d="M8772.03-490.837h172.781a.579.579,0,0,1,.58.581.579.579,0,0,1-.58.581H8772.269l-52.949,52.949a.6.6,0,0,1-.414.169H8467.892a.579.579,0,0,1-.41-.169L8426.212-478H8320.88a.58.58,0,0,1-.58-.581.58.58,0,0,1,.58-.578h105.57a.577.577,0,0,1,.41.169l41.27,41.269h250.539l52.951-52.949A.583.583,0,0,1,8772.03-490.837Z" transform="translate(-8320.3 490.837)" fill="#50e6ff"/>
          </g>
          <g id="Group_3091" data-name="Group 3091" transform="translate(254.75 18.269)">
            <path id="Path_1216" data-name="Path 1216" d="M8586.985-598.592h223.043a.576.576,0,0,1,.41.169l20.813,20.81h40.412a.579.579,0,0,1,.58.578.579.579,0,0,1-.58.581h-40.656a.576.576,0,0,1-.408-.172l-20.809-20.807H8587.228l-48.859,48.859a.582.582,0,0,1-.408.169H8418.788L8389.981-519.6a.583.583,0,0,1-.41.172H8362.3a.582.582,0,0,1-.58-.581.581.581,0,0,1,.58-.578h27.029L8418.14-549.4a.575.575,0,0,1,.408-.169H8537.72l48.855-48.859A.59.59,0,0,1,8586.985-598.592Z" transform="translate(-8361.724 598.592)" fill="#50e6ff"/>
          </g>
          <g id="Group_3092" data-name="Group 3092" transform="translate(106.847 254.405)">
            <path id="Path_1217" data-name="Path 1217" d="M8707.007-513.216h89.871a.568.568,0,0,1,.406.169l35.543,35.541h133.264a.579.579,0,0,1,.58.581.581.581,0,0,1-.58.581h-133.5a.583.583,0,0,1-.412-.171l-35.539-35.541h-89.4l-74.375,74.376a.576.576,0,0,1-.41.169H8468.933a.582.582,0,0,1-.408-.169l-30.26-30.258H8308.829a.58.58,0,0,1-.58-.581.58.58,0,0,1,.58-.578H8438.5a.587.587,0,0,1,.412.169l30.256,30.258H8632.22l74.379-74.376A.572.572,0,0,1,8707.007-513.216Z" transform="translate(-8308.249 513.216)" fill="#50e6ff"/>
          </g>
          <g id="Group_3093" data-name="Group 3093" transform="translate(162.199 413.021)">
            <path id="Path_1218" data-name="Path 1218" d="M8821.654-455.868h109.1a.579.579,0,0,1,.58.578.579.579,0,0,1-.58.581H8821.893l-57.264,57.264a.581.581,0,0,1-.41.172H8475.258a.578.578,0,0,1-.412-.172l-54.139-54.139h-91.865a.582.582,0,0,1-.58-.581.582.582,0,0,1,.58-.581h92.109a.584.584,0,0,1,.406.172l54.141,54.141h288.479l57.266-57.267A.587.587,0,0,1,8821.654-455.868Z" transform="translate(-8328.262 455.868)" fill="#50e6ff"/>
          </g>
          <g id="Group_3094" data-name="Group 3094" transform="translate(167.058 126.676)">
            <path id="Path_1219" data-name="Path 1219" d="M8333.081-559.4a3.062,3.062,0,0,1,3.061,3.059,3.062,3.062,0,0,1-3.061,3.062,3.065,3.065,0,0,1-3.062-3.062A3.065,3.065,0,0,1,8333.081-559.4Zm0,4.962a1.9,1.9,0,0,0,1.9-1.9,1.9,1.9,0,0,0-1.9-1.9,1.9,1.9,0,0,0-1.9,1.9A1.9,1.9,0,0,0,8333.081-554.435Z" transform="translate(-8330.019 559.397)" fill="#50e6ff"/>
          </g>
          <g id="Group_3095" data-name="Group 3095" transform="translate(249.791 93.793)">
            <path id="Path_1220" data-name="Path 1220" d="M8362.991-571.286a3.06,3.06,0,0,1,3.057,3.059,3.06,3.06,0,0,1-3.057,3.059,3.062,3.062,0,0,1-3.061-3.059A3.062,3.062,0,0,1,8362.991-571.286Zm0,4.959a1.9,1.9,0,0,0,1.9-1.9,1.9,1.9,0,0,0-1.9-1.9,1.9,1.9,0,0,0-1.9,1.9A1.9,1.9,0,0,0,8362.991-566.327Z" transform="translate(-8359.931 571.286)" fill="#50e6ff"/>
          </g>
          <path id="Path_1221" data-name="Path 1221" d="M8344.338-531.581a2.479,2.479,0,0,0,2.482,2.481,2.477,2.477,0,0,0,2.477-2.481,2.476,2.476,0,0,0-2.477-2.478A2.479,2.479,0,0,0,8344.338-531.581Z" transform="translate(-8137.674 730.816)" fill="#50e6ff"/>
          <path id="Path_1222" data-name="Path 1222" d="M8327.48-453a2.482,2.482,0,0,0,2.48,2.481,2.48,2.48,0,0,0,2.479-2.481,2.478,2.478,0,0,0-2.479-2.478A2.479,2.479,0,0,0,8327.48-453Z" transform="translate(-8167.439 869.576)" fill="#50e6ff"/>
          <circle id="Ellipse_3" data-name="Ellipse 3" cx="2.48" cy="2.48" r="2.48" transform="translate(192.34 360.84)" fill="#50e6ff"/>
          <path id="Path_1223" data-name="Path 1223" d="M8346.9-440.087a2.48,2.48,0,0,0,2.48,2.478,2.481,2.481,0,0,0,2.482-2.478,2.482,2.482,0,0,0-2.482-2.481A2.48,2.48,0,0,0,8346.9-440.087Z" transform="translate(-8133.154 892.375)" fill="#50e6ff"/>
          <g id="Group_3096" data-name="Group 3096" transform="translate(475.461 511.361)">
            <path id="Path_1224" data-name="Path 1224" d="M8444.58-420.313a3.065,3.065,0,0,1,3.061,3.059,3.065,3.065,0,0,1-3.061,3.062,3.062,3.062,0,0,1-3.059-3.062A3.062,3.062,0,0,1,8444.58-420.313Zm0,4.959a1.9,1.9,0,0,0,1.9-1.9,1.9,1.9,0,0,0-1.9-1.9,1.9,1.9,0,0,0-1.9,1.9A1.9,1.9,0,0,0,8444.58-415.354Z" transform="translate(-8441.521 420.313)" fill="#50e6ff"/>
          </g>
          <g id="Group_3097" data-name="Group 3097" transform="translate(615.828 550.705)">
            <path id="Path_1225" data-name="Path 1225" d="M8495.333-406.088a3.063,3.063,0,0,1,3.061,3.059,3.065,3.065,0,0,1-3.061,3.062,3.063,3.063,0,0,1-3.061-3.062A3.061,3.061,0,0,1,8495.333-406.088Zm0,4.962a1.906,1.906,0,0,0,1.9-1.9,1.9,1.9,0,0,0-1.9-1.9,1.9,1.9,0,0,0-1.9,1.9A1.9,1.9,0,0,0,8495.333-401.126Z" transform="translate(-8492.272 406.088)" fill="#50e6ff"/>
          </g>
          <path id="Path_1226" data-name="Path 1226" d="M8301.968-524.854a2.48,2.48,0,0,0,2.479,2.481,2.479,2.479,0,0,0,2.48-2.481,2.479,2.479,0,0,0-2.48-2.481A2.48,2.48,0,0,0,8301.968-524.854Z" transform="translate(-8212.494 742.689)" fill="#50e6ff"/>
          <g id="Group_3098" data-name="Group 3098" transform="translate(321.708 233.374)">
            <path id="Path_1227" data-name="Path 1227" d="M8388.993-520.82a3.067,3.067,0,0,1,3.063,3.062,3.067,3.067,0,0,1-3.062,3.059,3.064,3.064,0,0,1-3.061-3.059A3.064,3.064,0,0,1,8388.993-520.82Zm0,4.962a1.9,1.9,0,0,0,1.9-1.9,1.9,1.9,0,0,0-1.9-1.9,1.9,1.9,0,0,0-1.9,1.9A1.9,1.9,0,0,0,8388.993-515.858Z" transform="translate(-8385.933 520.82)" fill="#50e6ff"/>
          </g>
          <g id="Group_3099" data-name="Group 3099" transform="translate(101.888 296.026)">
            <path id="Path_1228" data-name="Path 1228" d="M8309.513-498.168a3.065,3.065,0,0,1,3.064,3.059,3.065,3.065,0,0,1-3.064,3.059,3.063,3.063,0,0,1-3.057-3.059A3.063,3.063,0,0,1,8309.513-498.168Zm0,4.959a1.9,1.9,0,0,0,1.9-1.9,1.9,1.9,0,0,0-1.9-1.9,1.9,1.9,0,0,0-1.9,1.9A1.9,1.9,0,0,0,8309.513-493.209Z" transform="translate(-8306.456 498.168)" fill="#50e6ff"/>
          </g>
          <path id="Path_1229" data-name="Path 1229" d="M8269.617-509.127a2.476,2.476,0,0,0,2.477,2.478,2.481,2.481,0,0,0,2.482-2.478,2.484,2.484,0,0,0-2.482-2.481A2.479,2.479,0,0,0,8269.617-509.127Z" transform="translate(-8269.617 770.461)" fill="#50e6ff"/>
          <path id="Path_1230" data-name="Path 1230" d="M8288.484-502.14a2.476,2.476,0,0,0,2.477,2.478,2.479,2.479,0,0,0,2.482-2.478,2.479,2.479,0,0,0-2.482-2.481A2.477,2.477,0,0,0,8288.484-502.14Z" transform="translate(-8236.301 782.799)" fill="#50e6ff"/>
          <circle id="Ellipse_4" data-name="Ellipse 4" cx="2.48" cy="2.48" r="2.48" transform="translate(231.958 164.865)" fill="#50e6ff"/>
          <path id="Path_1231" data-name="Path 1231" d="M8481.65-602.719a2.477,2.477,0,0,0,2.477,2.481,2.479,2.479,0,0,0,2.482-2.481,2.479,2.479,0,0,0-2.482-2.478A2.476,2.476,0,0,0,8481.65-602.719Z" transform="translate(-7895.199 605.197)" fill="#50e6ff"/>
          <g id="Group_3100" data-name="Group 3100" transform="translate(135.591 325.255)">
            <path id="Path_1232" data-name="Path 1232" d="M8321.7-487.6a3.062,3.062,0,0,1,3.057,3.062,3.061,3.061,0,0,1-3.057,3.059,3.064,3.064,0,0,1-3.061-3.059A3.064,3.064,0,0,1,8321.7-487.6Zm0,4.962a1.9,1.9,0,0,0,1.9-1.9,1.9,1.9,0,0,0-1.9-1.9,1.9,1.9,0,0,0-1.9,1.9A1.9,1.9,0,0,0,8321.7-482.638Z" transform="translate(-8318.642 487.6)" fill="#50e6ff"/>
          </g>
          <g id="Group_3101" data-name="Group 3101" transform="translate(93.558 378.606)">
            <path id="Path_1233" data-name="Path 1233" d="M8306.5-468.311a3.062,3.062,0,0,1,3.061,3.059,3.062,3.062,0,0,1-3.061,3.059,3.061,3.061,0,0,1-3.057-3.059A3.061,3.061,0,0,1,8306.5-468.311Zm0,4.959a1.9,1.9,0,0,0,1.9-1.9,1.9,1.9,0,0,0-1.9-1.9,1.9,1.9,0,0,0-1.9,1.9A1.9,1.9,0,0,0,8306.5-463.352Z" transform="translate(-8303.444 468.311)" fill="#50e6ff"/>
          </g>
          <g id="Group_3102" data-name="Group 3102" transform="translate(196.127 342.863)">
            <path id="Path_1234" data-name="Path 1234" d="M8765.075-481.234h144.016a.579.579,0,0,1,.58.581.579.579,0,0,1-.58.578H8765.313l-69.43,69.431a.578.578,0,0,1-.408.169h-235.93a.585.585,0,0,1-.408-.169l-49.5-49.5h-68.531a.58.58,0,0,1-.58-.581.58.58,0,0,1,.58-.578h68.771a.58.58,0,0,1,.41.169l49.5,49.5h235.447l69.428-69.428A.579.579,0,0,1,8765.075-481.234Z" transform="translate(-8340.528 481.234)" fill="#50e6ff"/>
          </g>
          <g id="Group_3103" data-name="Group 3103" transform="translate(589.639 1.9)">
            <path id="Path_1235" data-name="Path 1235" d="M8483.385-604.51h128.359a.583.583,0,0,1,.41.169l25.672,25.769h20.027a.579.579,0,0,1,.58.581.579.579,0,0,1-.58.578h-20.271a.589.589,0,0,1-.408-.169l-25.672-25.77H8483.385a.582.582,0,0,1-.582-.581A.581.581,0,0,1,8483.385-604.51Z" transform="translate(-8482.803 604.51)" fill="#50e6ff"/>
          </g>
          <g id="Group_3104" data-name="Group 3104" transform="translate(480.174 492.426)">
            <path id="Path_1236" data-name="Path 1236" d="M8648-427.159h79.74a.581.581,0,0,1,.58.581.579.579,0,0,1-.58.581h-79.5l-39.109,39.112a.586.586,0,0,1-.41.169h-63.486a.586.586,0,0,1-.41-.169l-17.684-17.685H8443.8a.584.584,0,0,1-.578-.581.582.582,0,0,1,.578-.581h83.578a.581.581,0,0,1,.408.171l17.686,17.685h63l39.115-39.112A.584.584,0,0,1,8648-427.159Z" transform="translate(-8443.226 427.159)" fill="#50e6ff"/>
          </g>
          <g id="Group_3105" data-name="Group 3105" transform="translate(620.79 523.13)">
            <path id="Path_1237" data-name="Path 1237" d="M8572.612-416.058h65.354a.579.579,0,0,1,.58.581.579.579,0,0,1-.58.578h-65.115l-29.885,29.885a.571.571,0,0,1-.41.172h-47.912a.58.58,0,0,1-.578-.581.58.58,0,0,1,.578-.578h47.672l29.889-29.888A.575.575,0,0,1,8572.612-416.058Z" transform="translate(-8494.065 416.058)" fill="#50e6ff"/>
          </g>
        </g>
      </g>
      <g id="Group_3120" data-name="Group 3120" transform="translate(-23.286 2116.351)" opacity="0.4" style="mix-blend-mode: lighten;isolation: isolate">
        <g id="Group_3077-2" data-name="Group 3077" transform="translate(0 36.252)" opacity="0.49" style="mix-blend-mode: overlay;isolation: isolate">
          <g id="Group_3051-2" data-name="Group 3051" transform="translate(0 131.303)">
            <g id="Group_3049-2" data-name="Group 3049" transform="translate(0 2.478)">
              <path id="Path_1170-2" data-name="Path 1170" d="M8957.181-464.609H8324.034a.58.58,0,0,1-.58-.581.58.58,0,0,1,.58-.581h633.146a.581.581,0,0,1,.582.581A.581.581,0,0,1,8957.181-464.609Z" transform="translate(-8323.454 465.771)" fill="#50e6ff"/>
            </g>
            <g id="Group_3050-2" data-name="Group 3050" transform="translate(633.126)">
              <path id="Path_1171-2" data-name="Path 1171" d="M8324.728-460.549a3.061,3.061,0,0,1-3.057-3.059,3.061,3.061,0,0,1,3.057-3.059,3.062,3.062,0,0,1,3.061,3.059A3.062,3.062,0,0,1,8324.728-460.549Zm0-4.959a1.9,1.9,0,0,0-1.9,1.9,1.9,1.9,0,0,0,1.9,1.9,1.9,1.9,0,0,0,1.9-1.9A1.9,1.9,0,0,0,8324.728-465.508Z" transform="translate(-8321.671 466.667)" fill="#50e6ff"/>
            </g>
          </g>
          <g id="Group_3052-2" data-name="Group 3052" transform="translate(0.001 148.462)">
            <path id="Path_1172-2" data-name="Path 1172" d="M9054.4-437.872H8871.282a.583.583,0,0,1-.41-.169l-50.023-50.023h-211.8l-33.312,33.306a.568.568,0,0,1-.41.172H8268.983a.581.581,0,0,1-.58-.581.58.58,0,0,1,.58-.578h306.105l33.309-33.309a.582.582,0,0,1,.41-.172h212.279a.589.589,0,0,1,.41.172l50.023,50.023H9054.4a.58.58,0,0,1,.578.581A.579.579,0,0,1,9054.4-437.872Z" transform="translate(-8268.403 489.226)" fill="#50e6ff"/>
          </g>
          <g id="Group_3053-2" data-name="Group 3053" transform="translate(0 167.063)">
            <path id="Path_1173-2" data-name="Path 1173" d="M9130.584-444.6H8828.135a.583.583,0,0,1-.41-.169L8777.7-494.792H8565.9l-33.312,33.309a.568.568,0,0,1-.41.171H8225.836a.58.58,0,0,1-.58-.581.58.58,0,0,1,.58-.578h306.105l33.309-33.309a.57.57,0,0,1,.41-.172h212.279a.577.577,0,0,1,.41.172l50.023,50.023h302.211a.583.583,0,0,1,.582.578A.583.583,0,0,1,9130.584-444.6Z" transform="translate(-8225.256 495.951)" fill="#50e6ff"/>
          </g>
          <g id="Group_3054-2" data-name="Group 3054" transform="translate(0.001 185.663)">
            <path id="Path_1174-2" data-name="Path 1174" d="M8980.652-451.323h-67.609a.585.585,0,0,1-.41-.171l-50.023-50.023h-211.8L8617.5-468.208a.579.579,0,0,1-.41.171H8310.744a.58.58,0,0,1-.58-.581.58.58,0,0,1,.58-.581H8616.85l33.309-33.306a.571.571,0,0,1,.41-.171h212.279a.578.578,0,0,1,.41.171l50.023,50.02h67.371a.58.58,0,0,1,.58.581A.58.58,0,0,1,8980.652-451.323Z" transform="translate(-8310.164 502.676)" fill="#50e6ff"/>
          </g>
          <g id="Group_3055-2" data-name="Group 3055" transform="translate(0.002 84.483)">
            <path id="Path_1175-2" data-name="Path 1175" d="M9038.5-394.253h-54.854a.566.566,0,0,1-.408-.172l-53.7-53.693H8789.172a.579.579,0,0,1-.41-.169l-28.25-28.25H8657.727l-27.5,27.506a.594.594,0,0,1-.41.169H8277.986a.58.58,0,0,1-.58-.578.581.581,0,0,1,.58-.581h351.588l27.506-27.506a.572.572,0,0,1,.408-.169h103.264a.586.586,0,0,1,.41.169l28.25,28.25h140.371a.57.57,0,0,1,.408.172l53.693,53.693H9038.5a.578.578,0,0,1,.578.578A.579.579,0,0,1,9038.5-394.253Z" transform="translate(-8277.406 477.696)" fill="#50e6ff"/>
          </g>
          <g id="Group_3056-2" data-name="Group 3056" transform="translate(0 376.122)">
            <path id="Path_1176-2" data-name="Path 1176" d="M8896.88-511.571H8642.144a.582.582,0,0,1-.41-.172l-63.516-63.512h-349.8a.58.58,0,0,1-.58-.581.578.578,0,0,1,.58-.578h350.039a.58.58,0,0,1,.41.169l63.512,63.515h254.262l58.455-58.456a.588.588,0,0,1,.408-.172h170.521a.58.58,0,0,1,.578.581.58.58,0,0,1-.578.581H8955.745l-58.455,58.453A.579.579,0,0,1,8896.88-511.571Z" transform="translate(-8227.839 576.414)" fill="#50e6ff"/>
          </g>
          <g id="Group_3057-2" data-name="Group 3057" transform="translate(0.001 226.835)">
            <path id="Path_1177-2" data-name="Path 1177" d="M8932.572-443.291H8821.061a.593.593,0,0,1-.41-.169l-85.916-85.921H8575.4l-34.051,34.053a.579.579,0,0,1-.41.169H8212.926a.58.58,0,0,1-.58-.578.58.58,0,0,1,.58-.581H8540.7l34.055-34.05a.566.566,0,0,1,.408-.172h159.809a.577.577,0,0,1,.41.172L8821.3-444.45h111.033l32.609-32.609a.572.572,0,0,1,.408-.169h188.031a.581.581,0,0,1,.58.578.582.582,0,0,1-.58.581H8965.59L8932.98-443.46A.575.575,0,0,1,8932.572-443.291Z" transform="translate(-8212.346 530.54)" fill="#50e6ff"/>
          </g>
          <g id="Group_3058-2" data-name="Group 3058" transform="translate(0.001 210.561)">
            <path id="Path_1178-2" data-name="Path 1178" d="M9186.579-460.324H8782.438a.574.574,0,0,1-.41-.172L8732-510.519H8551.946l-29.391,29.39a.582.582,0,0,1-.41.172H8194.128a.58.58,0,0,1-.58-.581.58.58,0,0,1,.58-.578h327.777l29.391-29.393a.583.583,0,0,1,.41-.169h180.539a.58.58,0,0,1,.41.169l50.023,50.026h403.9a.58.58,0,0,1,.58.578A.58.58,0,0,1,9186.579-460.324Z" transform="translate(-8193.548 511.678)" fill="#50e6ff"/>
          </g>
          <g id="Group_3059-2" data-name="Group 3059" transform="translate(0.001 39.247)">
            <path id="Path_1179-2" data-name="Path 1179" d="M9079.1-373.03H8963.966a.583.583,0,0,1-.41-.169l-43.912-43.911h-117.6a.6.6,0,0,1-.414-.169l-45.658-45.659H8582.362l-42.387,42.384a.583.583,0,0,1-.412.172H8255a.58.58,0,0,1-.58-.581.58.58,0,0,1,.58-.581h284.332l42.385-42.384a.582.582,0,0,1,.41-.172H8756.21a.594.594,0,0,1,.412.172l45.658,45.659h117.6a.587.587,0,0,1,.412.169l43.91,43.911H9079.1a.58.58,0,0,1,.578.581A.578.578,0,0,1,9079.1-373.03Z" transform="translate(-8254.415 464.098)" fill="#50e6ff"/>
          </g>
          <g id="Group_3060-2" data-name="Group 3060" transform="translate(0.001 450.518)">
            <path id="Path_1180-2" data-name="Path 1180" d="M8978.511-553.288H8644.616a.588.588,0,0,1-.412-.169l-40.3-40.3H8270.767a.58.58,0,0,1-.58-.578.58.58,0,0,1,.58-.581h333.377a.577.577,0,0,1,.408.172l40.3,40.3h333.418l39.113-39.112a.57.57,0,0,1,.408-.172h33.451a.583.583,0,0,1,.584.581.582.582,0,0,1-.584.578h-33.215l-39.107,39.115A.58.58,0,0,1,8978.511-553.288Z" transform="translate(-8270.187 594.92)" fill="#50e6ff"/>
          </g>
          <g id="Group_3061-2" data-name="Group 3061" transform="translate(0.001 316.305)">
            <path id="Path_1181-2" data-name="Path 1181" d="M8952.419-496.688H8701.4a.582.582,0,0,1-.41-.172l-52.953-52.949H8243.483a.58.58,0,0,1-.58-.581.58.58,0,0,1,.58-.578h404.8a.579.579,0,0,1,.408.169l52.953,52.949h250.537l41.268-41.269a.585.585,0,0,1,.408-.169h105.572a.577.577,0,0,1,.578.581.577.577,0,0,1-.578.578H8994.095l-41.268,41.269A.588.588,0,0,1,8952.419-496.688Z" transform="translate(-8242.903 550.968)" fill="#50e6ff"/>
          </g>
          <g id="Group_3062-2" data-name="Group 3062" transform="translate(0 18.269)">
            <path id="Path_1182-2" data-name="Path 1182" d="M9026.276-373.045h-27.266a.591.591,0,0,1-.412-.169l-28.809-28.809H8850.624a.58.58,0,0,1-.41-.169l-48.859-48.859H8578.79l-20.8,20.81a.6.6,0,0,1-.412.172H8284.905a.582.582,0,0,1-.58-.581.58.58,0,0,1,.58-.581h272.428l20.809-20.81a.586.586,0,0,1,.408-.169H8801.6a.581.581,0,0,1,.406.169l48.857,48.859H8970.03a.583.583,0,0,1,.41.169l28.811,28.809h27.025a.581.581,0,0,1,.582.581A.58.58,0,0,1,9026.276-373.045Z" transform="translate(-8284.325 452.209)" fill="#50e6ff"/>
          </g>
          <g id="Group_3063-2" data-name="Group 3063" transform="translate(0 254.405)">
            <path id="Path_1183-2" data-name="Path 1183" d="M8960.6-460.628H8797.073a.589.589,0,0,1-.408-.172l-74.377-74.376H8632.9l-35.543,35.541a.579.579,0,0,1-.408.169H8231.431a.58.58,0,0,1-.58-.578.58.58,0,0,1,.58-.581h365.275l35.541-35.538a.582.582,0,0,1,.41-.172h89.871a.582.582,0,0,1,.41.172l74.375,74.374h163.049l30.258-30.255a.569.569,0,0,1,.408-.172h129.68a.581.581,0,0,1,.578.581.581.581,0,0,1-.578.578H8991.267L8961.009-460.8A.579.579,0,0,1,8960.6-460.628Z" transform="translate(-8230.851 536.335)" fill="#50e6ff"/>
          </g>
          <g id="Group_3064-2" data-name="Group 3064" transform="translate(0.001 413.021)">
            <path id="Path_1184-2" data-name="Path 1184" d="M8938.953-528.9H8649.992a.586.586,0,0,1-.408-.169l-57.266-57.267H8251.445a.58.58,0,0,1-.58-.578.581.581,0,0,1,.58-.581h341.113a.59.59,0,0,1,.41.169l57.264,57.267h288.482l54.137-54.141a.586.586,0,0,1,.41-.169h92.105a.579.579,0,0,1,.578.578.58.58,0,0,1-.578.581H8993.5l-54.139,54.141A.575.575,0,0,1,8938.953-528.9Z" transform="translate(-8250.865 587.496)" fill="#50e6ff"/>
          </g>
          <g id="Group_3065-2" data-name="Group 3065" transform="translate(824.103 126.679)">
            <path id="Path_1185-2" data-name="Path 1185" d="M8255.685-458.877a3.062,3.062,0,0,1-3.062-3.059,3.062,3.062,0,0,1,3.063-3.059,3.061,3.061,0,0,1,3.057,3.059A3.061,3.061,0,0,1,8255.685-458.877Zm0-4.959a1.9,1.9,0,0,0-1.9,1.9,1.9,1.9,0,0,0,1.9,1.9,1.9,1.9,0,0,0,1.9-1.9A1.9,1.9,0,0,0,8255.685-463.836Z" transform="translate(-8252.622 464.995)" fill="#50e6ff"/>
          </g>
          <g id="Group_3066-2" data-name="Group 3066" transform="translate(741.371 93.793)">
            <path id="Path_1186-2" data-name="Path 1186" d="M8285.595-446.985a3.065,3.065,0,0,1-3.062-3.059,3.067,3.067,0,0,1,3.063-3.062,3.066,3.066,0,0,1,3.059,3.062A3.064,3.064,0,0,1,8285.595-446.985Zm0-4.959a1.9,1.9,0,0,0-1.9,1.9,1.9,1.9,0,0,0,1.9,1.9,1.9,1.9,0,0,0,1.9-1.9A1.9,1.9,0,0,0,8285.595-451.944Z" transform="translate(-8282.532 453.106)" fill="#50e6ff"/>
          </g>
          <path id="Path_1187-2" data-name="Path 1187" d="M8271.9-487.432a2.476,2.476,0,0,1-2.477,2.478,2.481,2.481,0,0,1-2.482-2.478,2.482,2.482,0,0,1,2.482-2.481A2.477,2.477,0,0,1,8271.9-487.432Z" transform="translate(-7481.285 686.67)" fill="#50e6ff"/>
          <path id="Path_1188-2" data-name="Path 1188" d="M8255.044-566.012a2.478,2.478,0,0,1-2.479,2.478,2.481,2.481,0,0,1-2.48-2.478,2.481,2.481,0,0,1,2.48-2.481A2.479,2.479,0,0,1,8255.044-566.012Z" transform="translate(-7417.802 982.59)" fill="#50e6ff"/>
          <ellipse id="Ellipse_1-2" data-name="Ellipse 1" cx="2.48" cy="2.48" rx="2.48" ry="2.48" transform="translate(799.983 360.84)" fill="#50e6ff"/>
          <path id="Path_1189-2" data-name="Path 1189" d="M8274.459-578.924a2.481,2.481,0,0,1-2.482,2.481,2.481,2.481,0,0,1-2.477-2.481,2.481,2.481,0,0,1,2.477-2.481A2.481,2.481,0,0,1,8274.459-578.924Z" transform="translate(-7490.919 1031.212)" fill="#50e6ff"/>
          <g id="Group_3067-2" data-name="Group 3067" transform="translate(515.706 511.364)">
            <path id="Path_1190-2" data-name="Path 1190" d="M8367.182-597.961a3.062,3.062,0,0,1-3.059-3.059,3.063,3.063,0,0,1,3.059-3.059,3.063,3.063,0,0,1,3.061,3.059A3.063,3.063,0,0,1,8367.182-597.961Zm0-4.959a1.9,1.9,0,0,0-1.9,1.9,1.9,1.9,0,0,0,1.9,1.9,1.9,1.9,0,0,0,1.9-1.9A1.9,1.9,0,0,0,8367.182-602.92Z" transform="translate(-8364.123 604.079)" fill="#50e6ff"/>
          </g>
          <g id="Group_3068-2" data-name="Group 3068" transform="translate(375.337 550.708)">
            <path id="Path_1191-2" data-name="Path 1191" d="M8417.933-612.186a3.063,3.063,0,0,1-3.059-3.059,3.063,3.063,0,0,1,3.059-3.059,3.065,3.065,0,0,1,3.063,3.059A3.065,3.065,0,0,1,8417.933-612.186Zm0-4.959a1.9,1.9,0,0,0-1.9,1.9,1.9,1.9,0,0,0,1.9,1.9,1.9,1.9,0,0,0,1.9-1.9A1.9,1.9,0,0,0,8417.933-617.145Z" transform="translate(-8414.874 618.304)" fill="#50e6ff"/>
          </g>
          <path id="Path_1192-2" data-name="Path 1192" d="M8229.528-494.16a2.48,2.48,0,0,1-2.48,2.481,2.479,2.479,0,0,1-2.479-2.481,2.478,2.478,0,0,1,2.479-2.478A2.48,2.48,0,0,1,8229.528-494.16Z" transform="translate(-7321.719 711.995)" fill="#50e6ff"/>
          <g id="Group_3069-2" data-name="Group 3069" transform="translate(669.454 233.377)">
            <path id="Path_1193-2" data-name="Path 1193" d="M8311.6-497.454a3.064,3.064,0,0,1-3.062-3.059,3.064,3.064,0,0,1,3.063-3.059,3.064,3.064,0,0,1,3.059,3.059A3.064,3.064,0,0,1,8311.6-497.454Zm0-4.959a1.9,1.9,0,0,0-1.9,1.9,1.9,1.9,0,0,0,1.9,1.9,1.9,1.9,0,0,0,1.9-1.9A1.9,1.9,0,0,0,8311.6-502.413Z" transform="translate(-8308.535 503.572)" fill="#50e6ff"/>
          </g>
          <g id="Group_3070-2" data-name="Group 3070" transform="translate(889.274 296.029)">
            <path id="Path_1194-2" data-name="Path 1194" d="M8232.118-520.106a3.063,3.063,0,0,1-3.061-3.059,3.063,3.063,0,0,1,3.061-3.059,3.063,3.063,0,0,1,3.061,3.059A3.063,3.063,0,0,1,8232.118-520.106Zm0-4.959a1.9,1.9,0,0,0-1.9,1.9,1.9,1.9,0,0,0,1.9,1.9,1.9,1.9,0,0,0,1.9-1.9A1.9,1.9,0,0,0,8232.118-525.065Z" transform="translate(-8229.058 526.224)" fill="#50e6ff"/>
          </g>
          <path id="Path_1195-2" data-name="Path 1195" d="M8197.178-509.887a2.484,2.484,0,0,1-2.482,2.481,2.479,2.479,0,0,1-2.477-2.481,2.476,2.476,0,0,1,2.477-2.478A2.481,2.481,0,0,1,8197.178-509.887Z" transform="translate(-7199.892 771.221)" fill="#50e6ff"/>
          <path id="Path_1196-2" data-name="Path 1196" d="M8216.045-516.871a2.484,2.484,0,0,1-2.482,2.481,2.48,2.48,0,0,1-2.477-2.481,2.48,2.48,0,0,1,2.477-2.481A2.484,2.484,0,0,1,8216.045-516.871Z" transform="translate(-7270.943 797.53)" fill="#50e6ff"/>
          <ellipse id="Ellipse_2-2" data-name="Ellipse 2" cx="2.48" cy="2.48" rx="2.48" ry="2.48" transform="translate(760.365 164.865)" fill="#50e6ff"/>
          <path id="Path_1197-2" data-name="Path 1197" d="M8409.211-416.294a2.481,2.481,0,0,1-2.482,2.478,2.477,2.477,0,0,1-2.477-2.478,2.48,2.48,0,0,1,2.477-2.481A2.484,2.484,0,0,1,8409.211-416.294Z" transform="translate(-7998.377 418.775)" fill="#50e6ff"/>
          <g id="Group_3071-2" data-name="Group 3071" transform="translate(855.573 325.255)">
            <path id="Path_1198-2" data-name="Path 1198" d="M8244.3-530.671a3.065,3.065,0,0,1-3.061-3.059,3.065,3.065,0,0,1,3.061-3.062,3.065,3.065,0,0,1,3.059,3.062A3.065,3.065,0,0,1,8244.3-530.671Zm0-4.959a1.9,1.9,0,0,0-1.9,1.9,1.9,1.9,0,0,0,1.9,1.9,1.9,1.9,0,0,0,1.9-1.9A1.9,1.9,0,0,0,8244.3-535.63Z" transform="translate(-8241.243 536.792)" fill="#50e6ff"/>
          </g>
          <g id="Group_3072-2" data-name="Group 3072" transform="translate(897.606 378.606)">
            <path id="Path_1199-2" data-name="Path 1199" d="M8229.1-549.96a3.063,3.063,0,0,1-3.059-3.062,3.063,3.063,0,0,1,3.059-3.059,3.063,3.063,0,0,1,3.061,3.059A3.064,3.064,0,0,1,8229.1-549.96Zm0-4.962a1.9,1.9,0,0,0-1.9,1.9,1.9,1.9,0,0,0,1.9,1.9,1.9,1.9,0,0,0,1.9-1.9A1.9,1.9,0,0,0,8229.1-554.922Z" transform="translate(-8226.046 556.081)" fill="#50e6ff"/>
          </g>
          <g id="Group_3073-2" data-name="Group 3073" transform="translate(0.001 342.865)">
            <path id="Path_1200-2" data-name="Path 1200" d="M8945.265-495.77H8709.339a.586.586,0,0,1-.41-.172L8639.5-565.37H8263.71a.58.58,0,0,1-.58-.581.58.58,0,0,1,.58-.578h376.031a.586.586,0,0,1,.41.169l69.428,69.428h235.447l49.5-49.495a.57.57,0,0,1,.408-.172h68.777a.58.58,0,0,1,.58.581.58.58,0,0,1-.58.578h-68.537l-49.5,49.5A.582.582,0,0,1,8945.265-495.77Z" transform="translate(-8263.13 566.529)" fill="#50e6ff"/>
          </g>
          <g id="Group_3074-2" data-name="Group 3074" transform="translate(0.001 1.9)">
            <path id="Path_1201-2" data-name="Path 1201" d="M8658.269-400.367H8405.987a.581.581,0,0,1-.58-.581.58.58,0,0,1,.58-.578h252.041l25.67-25.77a.593.593,0,0,1,.41-.171H8812.47a.58.58,0,0,1,.578.581.58.58,0,0,1-.578.578H8684.351l-25.668,25.769A.583.583,0,0,1,8658.269-400.367Z" transform="translate(-8405.407 427.467)" fill="#50e6ff"/>
          </g>
          <g id="Group_3075-2" data-name="Group 3075" transform="translate(0.001 492.429)">
            <path id="Path_1202-2" data-name="Path 1202" d="M8780.927-569.2H8717.44a.594.594,0,0,1-.412-.172l-39.107-39.112H8366.409a.58.58,0,0,1-.58-.581.58.58,0,0,1,.58-.578h311.75a.577.577,0,0,1,.41.169l39.111,39.115h63.01l17.684-17.688a.579.579,0,0,1,.41-.169h83.572a.58.58,0,0,1,.58.581.58.58,0,0,1-.58.578h-83.334l-17.687,17.685A.575.575,0,0,1,8780.927-569.2Z" transform="translate(-8365.829 609.643)" fill="#50e6ff"/>
          </g>
          <g id="Group_3076-2" data-name="Group 3076" transform="translate(0 523.129)">
            <path id="Path_1203-2" data-name="Path 1203" d="M8792.581-586.19h-47.91a.578.578,0,0,1-.408-.172l-29.889-29.888H8417.247a.58.58,0,0,1-.58-.581.58.58,0,0,1,.58-.578h297.367a.58.58,0,0,1,.41.169l29.885,29.888h47.672a.581.581,0,0,1,.582.581A.581.581,0,0,1,8792.581-586.19Z" transform="translate(-8416.667 617.408)" fill="#50e6ff"/>
          </g>
        </g>
        <g id="Group_3106-2" data-name="Group 3106" transform="translate(17.943 0)">
          <g id="Group_3080-2" data-name="Group 3080" transform="translate(0.001 419.405)">
            <g id="Group_3078-2" data-name="Group 3078" transform="translate(0 2.478)">
              <path id="Path_1204-2" data-name="Path 1204" d="M8802.563-555.666H8401.433a.579.579,0,0,1-.58-.581.579.579,0,0,1,.58-.581h401.131a.583.583,0,0,1,.584.581A.583.583,0,0,1,8802.563-555.666Z" transform="translate(-8400.853 556.828)" fill="#50e6ff"/>
            </g>
            <g id="Group_3079-2" data-name="Group 3079" transform="translate(401.11)">
              <path id="Path_1205-2" data-name="Path 1205" d="M8402.13-551.606a3.062,3.062,0,0,1-3.061-3.059,3.062,3.062,0,0,1,3.061-3.059,3.061,3.061,0,0,1,3.057,3.059A3.061,3.061,0,0,1,8402.13-551.606Zm0-4.959a1.906,1.906,0,0,0-1.9,1.9,1.906,1.906,0,0,0,1.9,1.9,1.9,1.9,0,0,0,1.9-1.9A1.9,1.9,0,0,0,8402.13-556.565Z" transform="translate(-8399.069 557.724)" fill="#50e6ff"/>
            </g>
          </g>
          <g id="Group_3081-2" data-name="Group 3081" transform="translate(0.001 357.01)">
            <path id="Path_1206-2" data-name="Path 1206" d="M8666.47-500.166H8454.19a.563.563,0,0,1-.406-.172l-33.312-33.309H8346.38a.579.579,0,0,1-.58-.578.579.579,0,0,1,.58-.581h74.332a.577.577,0,0,1,.408.172l33.309,33.309h211.8l50.025-50.026a.579.579,0,0,1,.41-.169h183.117a.58.58,0,0,1,.58.578.58.58,0,0,1-.58.581H8716.905l-50.025,50.023A.571.571,0,0,1,8666.47-500.166Z" transform="translate(-8345.8 551.52)" fill="#50e6ff"/>
          </g>
          <g id="Group_3082-2" data-name="Group 3082" transform="translate(0 338.412)">
            <path id="Path_1207-2" data-name="Path 1207" d="M8623.324-493.444H8411.045a.57.57,0,0,1-.406-.169l-33.312-33.309h-74.092a.579.579,0,0,1-.58-.581.579.579,0,0,1,.58-.578h74.332a.585.585,0,0,1,.408.169l33.309,33.309h211.8l50.025-50.023a.579.579,0,0,1,.41-.169h302.447a.58.58,0,0,1,.582.578.581.581,0,0,1-.582.581H8673.76l-50.025,50.023A.579.579,0,0,1,8623.324-493.444Z" transform="translate(-8302.654 544.795)" fill="#50e6ff"/>
          </g>
          <g id="Group_3083-2" data-name="Group 3083" transform="translate(0 319.812)">
            <path id="Path_1208-2" data-name="Path 1208" d="M8708.23-486.719H8495.951a.571.571,0,0,1-.406-.169L8462.232-520.2h-74.092a.579.579,0,0,1-.58-.578.579.579,0,0,1,.58-.581h74.332a.576.576,0,0,1,.408.172l33.309,33.306h211.8l50.025-50.023a.58.58,0,0,1,.41-.169h67.609a.583.583,0,0,1,.582.578.583.583,0,0,1-.582.581h-67.369l-50.025,50.023A.58.58,0,0,1,8708.23-486.719Z" transform="translate(-8387.561 538.07)" fill="#50e6ff"/>
          </g>
          <g id="Group_3084-2" data-name="Group 3084" transform="translate(0.001 388.9)">
            <path id="Path_1209-2" data-name="Path 1209" d="M8606.134-491.209H8502.87a.586.586,0,0,1-.41-.169l-27.506-27.506H8355.382a.579.579,0,0,1-.58-.578.579.579,0,0,1,.58-.581h119.813a.574.574,0,0,1,.41.172l27.508,27.5H8605.9l28.248-28.248a.576.576,0,0,1,.408-.172h140.375l53.693-53.693a.583.583,0,0,1,.41-.172h54.855a.582.582,0,0,1,.58.581.582.582,0,0,1-.58.581h-54.615L8775.577-519.8a.589.589,0,0,1-.414.169H8634.792l-28.25,28.25A.575.575,0,0,1,8606.134-491.209Z" transform="translate(-8354.802 574.652)" fill="#50e6ff"/>
          </g>
          <g id="Group_3085-2" data-name="Group 3085" transform="translate(0.001 115.864)">
            <path id="Path_1210-2" data-name="Path 1210" d="M8423.845-404.367H8305.817a.579.579,0,0,1-.58-.581.579.579,0,0,1,.58-.578h117.789l63.512-63.515a.578.578,0,0,1,.408-.169h254.738a.579.579,0,0,1,.41.169l58.455,58.456h170.279a.58.58,0,0,1,.58.578.58.58,0,0,1-.58.581H8800.89a.581.581,0,0,1-.41-.172l-58.453-58.453H8487.769l-63.518,63.512A.573.573,0,0,1,8423.845-404.367Z" transform="translate(-8305.237 469.21)" fill="#50e6ff"/>
          </g>
          <g id="Group_3086-2" data-name="Group 3086" transform="translate(0.001 242.742)">
            <path id="Path_1211-2" data-name="Path 1211" d="M8580.357-435.934h-159.8a.591.591,0,0,1-.412-.172l-34.051-34.053h-95.768a.579.579,0,0,1-.58-.581.579.579,0,0,1,.58-.578h96.006a.574.574,0,0,1,.406.169l34.059,34.053h159.324l85.92-85.918a.58.58,0,0,1,.414-.172h111.506a.578.578,0,0,1,.41.172l32.609,32.607H8998.77a.58.58,0,0,1,.578.581.58.58,0,0,1-.578.581H8810.738a.582.582,0,0,1-.41-.172l-32.609-32.609H8666.689l-85.922,85.921A.579.579,0,0,1,8580.357-435.934Z" transform="translate(-8289.744 523.185)" fill="#50e6ff"/>
          </g>
          <g id="Group_3087-2" data-name="Group 3087" transform="translate(0.001 294.914)">
            <path id="Path_1212-2" data-name="Path 1212" d="M8577.63-477.717H8397.091a.578.578,0,0,1-.408-.169l-29.389-29.39h-95.768a.579.579,0,0,1-.58-.581.579.579,0,0,1,.58-.578h96.006a.574.574,0,0,1,.406.169l29.391,29.39h180.064l50.02-50.023a.587.587,0,0,1,.41-.169h404.139a.58.58,0,0,1,.58.578.58.58,0,0,1-.58.581h-403.9l-50.025,50.023A.572.572,0,0,1,8577.63-477.717Z" transform="translate(-8270.946 529.068)" fill="#50e6ff"/>
          </g>
          <g id="Group_3088-2" data-name="Group 3088" transform="translate(0.001 426.51)">
            <path id="Path_1213-2" data-name="Path 1213" d="M8601.6-499.939h-174.09a.572.572,0,0,1-.408-.169l-42.387-42.387h-52.318a.579.579,0,0,1-.58-.578.579.579,0,0,1,.58-.581h52.559a.576.576,0,0,1,.408.171l42.385,42.384h173.611l45.66-45.659a.581.581,0,0,1,.408-.172h117.607l43.91-43.908a.57.57,0,0,1,.408-.172h115.129a.58.58,0,0,1,.58.581.58.58,0,0,1-.58.578H8809.591l-43.912,43.911a.572.572,0,0,1-.408.169H8647.665L8602-500.107A.585.585,0,0,1,8601.6-499.939Z" transform="translate(-8331.813 591.007)" fill="#50e6ff"/>
          </g>
          <g id="Group_3089-2" data-name="Group 3089" transform="translate(0.001 64.677)">
            <path id="Path_1214-2" data-name="Path 1214" d="M8449.526-400.679H8348.165a.579.579,0,0,1-.58-.578.579.579,0,0,1,.58-.581h101.123l40.3-40.3a.581.581,0,0,1,.408-.172h333.9a.578.578,0,0,1,.408.172l39.113,39.112h33.215a.579.579,0,0,1,.578.578.58.58,0,0,1-.578.581h-33.455a.577.577,0,0,1-.41-.172l-39.107-39.112H8490.241l-40.3,40.3A.576.576,0,0,1,8449.526-400.679Z" transform="translate(-8347.585 442.311)" fill="#50e6ff"/>
          </g>
          <g id="Group_3090-2" data-name="Group 3090" transform="translate(0.001 186.244)">
            <path id="Path_1215-2" data-name="Path 1215" d="M8493.661-436.557H8320.88a.579.579,0,0,1-.58-.581.579.579,0,0,1,.58-.581h172.543l52.949-52.949a.6.6,0,0,1,.414-.169H8797.8a.579.579,0,0,1,.41.169l41.27,41.269h105.332a.58.58,0,0,1,.58.581.58.58,0,0,1-.58.578h-105.57a.577.577,0,0,1-.41-.169l-41.27-41.269H8547.022l-52.951,52.949A.583.583,0,0,1,8493.661-436.557Z" transform="translate(-8320.3 490.837)" fill="#50e6ff"/>
          </g>
          <g id="Group_3091-2" data-name="Group 3091" transform="translate(0.001 459.393)">
            <path id="Path_1216-2" data-name="Path 1216" d="M8646.981-519.428H8423.938a.576.576,0,0,1-.41-.169l-20.812-20.81H8362.3a.579.579,0,0,1-.58-.578.579.579,0,0,1,.58-.581h40.656a.576.576,0,0,1,.408.172l20.809,20.807h222.563l48.859-48.859a.582.582,0,0,1,.408-.169h119.172l28.807-28.806a.583.583,0,0,1,.41-.172h27.268a.582.582,0,0,1,.58.581.581.581,0,0,1-.58.578h-27.029l-28.807,28.809a.575.575,0,0,1-.408.169H8696.247L8647.392-519.6A.59.59,0,0,1,8646.981-519.428Z" transform="translate(-8361.724 598.592)" fill="#50e6ff"/>
          </g>
          <g id="Group_3092-2" data-name="Group 3092" transform="translate(0.001 226.717)">
            <path id="Path_1217-2" data-name="Path 1217" d="M8567.913-437.512h-89.871a.568.568,0,0,1-.406-.169l-35.543-35.541H8308.829a.579.579,0,0,1-.58-.581.581.581,0,0,1,.58-.581h133.5a.583.583,0,0,1,.412.171l35.539,35.541h89.4l74.375-74.376a.576.576,0,0,1,.41-.169h163.525a.582.582,0,0,1,.408.169l30.26,30.258h129.436a.58.58,0,0,1,.58.581.58.58,0,0,1-.58.578H8836.415a.587.587,0,0,1-.412-.169l-30.256-30.258H8642.7l-74.379,74.376A.572.572,0,0,1,8567.913-437.512Z" transform="translate(-8308.249 513.216)" fill="#50e6ff"/>
          </g>
          <g id="Group_3093-2" data-name="Group 3093" transform="translate(0.001 85.21)">
            <path id="Path_1218-2" data-name="Path 1218" d="M8437.939-397.273h-109.1a.579.579,0,0,1-.58-.578.579.579,0,0,1,.58-.581H8437.7l57.264-57.264a.581.581,0,0,1,.41-.172h288.961a.578.578,0,0,1,.412.172l54.139,54.139h91.865a.582.582,0,0,1,.58.581.582.582,0,0,1-.58.581h-92.109a.584.584,0,0,1-.406-.172L8784.1-454.709H8495.617l-57.266,57.267A.587.587,0,0,1,8437.939-397.273Z" transform="translate(-8328.262 455.868)" fill="#50e6ff"/>
          </g>
          <g id="Group_3094-2" data-name="Group 3094" transform="translate(592.089 424.029)">
            <path id="Path_1219-2" data-name="Path 1219" d="M8333.079-553.276a3.062,3.062,0,0,1-3.061-3.059,3.062,3.062,0,0,1,3.061-3.062,3.065,3.065,0,0,1,3.063,3.062A3.065,3.065,0,0,1,8333.079-553.276Zm0-4.962a1.9,1.9,0,0,0-1.9,1.9,1.9,1.9,0,0,0,1.9,1.9,1.9,1.9,0,0,0,1.9-1.9A1.9,1.9,0,0,0,8333.079-558.238Z" transform="translate(-8330.019 559.397)" fill="#50e6ff"/>
          </g>
          <g id="Group_3095-2" data-name="Group 3095" transform="translate(509.362 456.915)">
            <path id="Path_1220-2" data-name="Path 1220" d="M8362.987-565.168a3.06,3.06,0,0,1-3.057-3.059,3.06,3.06,0,0,1,3.057-3.059,3.062,3.062,0,0,1,3.061,3.059A3.062,3.062,0,0,1,8362.987-565.168Zm0-4.959a1.9,1.9,0,0,0-1.9,1.9,1.9,1.9,0,0,0,1.9,1.9,1.9,1.9,0,0,0,1.9-1.9A1.9,1.9,0,0,0,8362.987-570.127Z" transform="translate(-8359.931 571.286)" fill="#50e6ff"/>
          </g>
          <path id="Path_1221-2" data-name="Path 1221" d="M8349.3-531.578a2.479,2.479,0,0,0-2.482-2.481,2.477,2.477,0,0,0-2.477,2.481,2.476,2.476,0,0,0,2.477,2.478A2.479,2.479,0,0,0,8349.3-531.578Z" transform="translate(-7790.69 889.169)" fill="#50e6ff"/>
          <path id="Path_1222-2" data-name="Path 1222" d="M8332.439-453a2.482,2.482,0,0,0-2.48-2.481A2.48,2.48,0,0,0,8327.48-453a2.478,2.478,0,0,0,2.479,2.478A2.479,2.479,0,0,0,8332.439-453Z" transform="translate(-7727.21 593.249)" fill="#50e6ff"/>
          <ellipse id="Ellipse_3-2" data-name="Ellipse 3" cx="2.48" cy="2.48" rx="2.48" ry="2.48" transform="translate(567.971 191.027)" fill="#50e6ff"/>
          <path id="Path_1223-2" data-name="Path 1223" d="M8351.859-440.09a2.48,2.48,0,0,0-2.48-2.478,2.481,2.481,0,0,0-2.482,2.478,2.482,2.482,0,0,0,2.482,2.481A2.48,2.48,0,0,0,8351.859-440.09Z" transform="translate(-7800.332 544.628)" fill="#50e6ff"/>
          <g id="Group_3096-2" data-name="Group 3096" transform="translate(283.69 39.344)">
            <path id="Path_1224-2" data-name="Path 1224" d="M8444.582-414.192a3.065,3.065,0,0,1-3.061-3.059,3.065,3.065,0,0,1,3.061-3.062,3.062,3.062,0,0,1,3.059,3.062A3.062,3.062,0,0,1,8444.582-414.192Zm0-4.959a1.9,1.9,0,0,0-1.9,1.9,1.9,1.9,0,0,0,1.9,1.9,1.9,1.9,0,0,0,1.9-1.9A1.9,1.9,0,0,0,8444.582-419.151Z" transform="translate(-8441.521 420.313)" fill="#50e6ff"/>
          </g>
          <g id="Group_3097-2" data-name="Group 3097" transform="translate(143.321)">
            <path id="Path_1225-2" data-name="Path 1225" d="M8495.333-399.967a3.063,3.063,0,0,1-3.061-3.059,3.065,3.065,0,0,1,3.061-3.062,3.063,3.063,0,0,1,3.061,3.062A3.061,3.061,0,0,1,8495.333-399.967Zm0-4.962a1.906,1.906,0,0,0-1.9,1.9,1.9,1.9,0,0,0,1.9,1.9,1.9,1.9,0,0,0,1.9-1.9A1.9,1.9,0,0,0,8495.333-404.929Z" transform="translate(-8492.272 406.088)" fill="#50e6ff"/>
          </g>
          <path id="Path_1226-2" data-name="Path 1226" d="M8306.927-524.854a2.48,2.48,0,0,0-2.479-2.481,2.479,2.479,0,0,0-2.48,2.481,2.479,2.479,0,0,0,2.48,2.481A2.48,2.48,0,0,0,8306.927-524.854Z" transform="translate(-7631.13 863.845)" fill="#50e6ff"/>
          <g id="Group_3098-2" data-name="Group 3098" transform="translate(437.439 317.331)">
            <path id="Path_1227-2" data-name="Path 1227" d="M8389-514.7a3.067,3.067,0,0,1-3.062-3.062A3.067,3.067,0,0,1,8389-520.82a3.064,3.064,0,0,1,3.061,3.059A3.064,3.064,0,0,1,8389-514.7Zm0-4.962a1.9,1.9,0,0,0-1.9,1.9,1.9,1.9,0,0,0,1.9,1.9,1.9,1.9,0,0,0,1.9-1.9A1.9,1.9,0,0,0,8389-519.661Z" transform="translate(-8385.933 520.82)" fill="#50e6ff"/>
          </g>
          <g id="Group_3099-2" data-name="Group 3099" transform="translate(657.261 254.682)">
            <path id="Path_1228-2" data-name="Path 1228" d="M8309.521-492.05a3.065,3.065,0,0,1-3.064-3.059,3.065,3.065,0,0,1,3.064-3.059,3.063,3.063,0,0,1,3.057,3.059A3.063,3.063,0,0,1,8309.521-492.05Zm0-4.959a1.9,1.9,0,0,0-1.9,1.9,1.9,1.9,0,0,0,1.9,1.9,1.9,1.9,0,0,0,1.9-1.9A1.9,1.9,0,0,0,8309.521-497.009Z" transform="translate(-8306.456 498.168)" fill="#50e6ff"/>
          </g>
          <path id="Path_1229-2" data-name="Path 1229" d="M8274.576-509.13a2.476,2.476,0,0,0-2.477-2.478,2.481,2.481,0,0,0-2.482,2.478,2.484,2.484,0,0,0,2.482,2.481A2.479,2.479,0,0,0,8274.576-509.13Z" transform="translate(-7509.306 804.622)" fill="#50e6ff"/>
          <path id="Path_1230-2" data-name="Path 1230" d="M8293.443-502.143a2.476,2.476,0,0,0-2.477-2.478,2.479,2.479,0,0,0-2.482,2.478,2.479,2.479,0,0,0,2.482,2.481A2.477,2.477,0,0,0,8293.443-502.143Z" transform="translate(-7580.357 778.31)" fill="#50e6ff"/>
          <ellipse id="Ellipse_4-2" data-name="Ellipse 4" cx="2.48" cy="2.48" rx="2.48" ry="2.48" transform="translate(528.352 387.002)" fill="#50e6ff"/>
          <path id="Path_1231-2" data-name="Path 1231" d="M8486.609-602.716a2.477,2.477,0,0,0-2.477-2.481,2.479,2.479,0,0,0-2.482,2.481,2.479,2.479,0,0,0,2.482,2.478A2.476,2.476,0,0,0,8486.609-602.716Z" transform="translate(-8307.791 1157.064)" fill="#50e6ff"/>
          <g id="Group_3100-2" data-name="Group 3100" transform="translate(623.562 225.45)">
            <path id="Path_1232-2" data-name="Path 1232" d="M8321.7-481.479a3.062,3.062,0,0,1-3.057-3.062,3.061,3.061,0,0,1,3.057-3.059,3.064,3.064,0,0,1,3.061,3.059A3.064,3.064,0,0,1,8321.7-481.479Zm0-4.962a1.9,1.9,0,0,0-1.9,1.9,1.9,1.9,0,0,0,1.9,1.9,1.9,1.9,0,0,0,1.9-1.9A1.9,1.9,0,0,0,8321.7-486.441Z" transform="translate(-8318.642 487.6)" fill="#50e6ff"/>
          </g>
          <g id="Group_3101-2" data-name="Group 3101" transform="translate(665.595 172.102)">
            <path id="Path_1233-2" data-name="Path 1233" d="M8306.5-462.193a3.062,3.062,0,0,1-3.061-3.059,3.062,3.062,0,0,1,3.061-3.059,3.061,3.061,0,0,1,3.057,3.059A3.061,3.061,0,0,1,8306.5-462.193Zm0-4.959a1.9,1.9,0,0,0-1.9,1.9,1.9,1.9,0,0,0,1.9,1.9,1.9,1.9,0,0,0,1.9-1.9A1.9,1.9,0,0,0,8306.5-467.152Z" transform="translate(-8303.444 468.311)" fill="#50e6ff"/>
          </g>
          <g id="Group_3102-2" data-name="Group 3102" transform="translate(0.001 143.204)">
            <path id="Path_1234-2" data-name="Path 1234" d="M8485.124-410.475H8341.108a.579.579,0,0,1-.58-.581.579.579,0,0,1,.58-.578h143.777l69.43-69.431a.578.578,0,0,1,.408-.169h235.93a.585.585,0,0,1,.408.169l49.5,49.5h68.531a.58.58,0,0,1,.58.581.58.58,0,0,1-.58.578h-68.771a.58.58,0,0,1-.41-.169l-49.5-49.5H8554.962l-69.428,69.428A.579.579,0,0,1,8485.124-410.475Z" transform="translate(-8340.528 481.234)" fill="#50e6ff"/>
          </g>
          <g id="Group_3103-2" data-name="Group 3103" transform="translate(0.001 527.829)">
            <path id="Path_1235-2" data-name="Path 1235" d="M8657.852-577.413H8529.492a.583.583,0,0,1-.41-.169l-25.672-25.769h-20.027a.579.579,0,0,1-.58-.581.579.579,0,0,1,.58-.578h20.271a.589.589,0,0,1,.408.169l25.672,25.77h128.117a.582.582,0,0,1,.582.581A.581.581,0,0,1,8657.852-577.413Z" transform="translate(-8482.803 604.51)" fill="#50e6ff"/>
          </g>
          <g id="Group_3104-2" data-name="Group 3104" transform="translate(0 23.958)">
            <path id="Path_1236-2" data-name="Path 1236" d="M8523.546-386.717h-79.74a.581.581,0,0,1-.58-.581.579.579,0,0,1,.58-.581h79.5l39.109-39.112a.586.586,0,0,1,.41-.169h63.486a.586.586,0,0,1,.41.169l17.684,17.685h83.338a.584.584,0,0,1,.578.581.582.582,0,0,1-.578.581h-83.578a.581.581,0,0,1-.408-.171L8626.071-426h-63l-39.115,39.112A.584.584,0,0,1,8523.546-386.717Z" transform="translate(-8443.226 427.159)" fill="#50e6ff"/>
          </g>
          <g id="Group_3105-2" data-name="Group 3105" transform="translate(0 2.481)">
            <path id="Path_1237-2" data-name="Path 1237" d="M8560-384.843h-65.354a.579.579,0,0,1-.58-.581.579.579,0,0,1,.58-.578h65.115l29.885-29.885a.571.571,0,0,1,.41-.172h47.912a.58.58,0,0,1,.578.581.58.58,0,0,1-.578.578H8590.3l-29.889,29.888A.575.575,0,0,1,8560-384.843Z" transform="translate(-8494.065 416.058)" fill="#50e6ff"/>
          </g>
        </g>
      </g>
    </g>
  </g>
</svg>
