<?xml version="1.0" encoding="utf-8"?>
<!-- Generator: Adobe Illustrator 25.0.1, SVG Export Plug-In . SVG Version: 6.00 Build 0)  -->
<svg version="1.1" id="bcf584b3-8033-4e5c-a564-1a98c3e84e1e"
	 xmlns="http://www.w3.org/2000/svg" xmlns:xlink="http://www.w3.org/1999/xlink" x="0px" y="0px" viewBox="0 0 643.5 175.8"
	 style="enable-background:new 0 0 643.5 175.8;" xml:space="preserve">
<style type="text/css">
	.st0{fill:#FFFFFF;}
	.st1{fill:#191136;}
	.st2{fill:#449FD8;}
	.st3{fill:#416AD9;}
</style>
<path class="st0" d="M627.5,175.8H16c-8.8,0-16-7.2-16-16V16C0,7.2,7.2,0,16,0h611.5c8.8,0,16,7.2,16,16v143.8
	C643.5,168.6,636.3,175.8,627.5,175.8z"/>
<g>
	<g>
		<path class="st1" d="M147.8,98.1l-4.1-4.1l-8.3,8.3l4.1,4.1c3.5,3.4,5.3,8,5.3,12.8s-1.9,9.4-5.3,12.8c-3.4,3.5-8,5.3-12.8,5.3
			c-4.8,0-9.4-1.9-12.8-5.3l-4.1-4.1l-6.1-6.1l-8.3,8.2l6.1,6.1l4.1,4.1c11.6,11.7,30.5,11.7,42.1,0.1l0.1-0.1l0,0
			c11.7-11.7,11.8-30.5,0.2-42.2C148,98.1,148,98,147.8,98.1z"/>
		<path class="st1" d="M89.8,40.1l-4.6-4.6c-11.6-11.7-30.5-11.7-42.1-0.1L43,35.5l0,0c-11.6,11.5-11.7,30.4-0.1,42
			c0.1,0.1,0.1,0.1,0.1,0.1l4.6,4.6l8.2-8.3l-4.6-4.6c-7.5-6.7-8-18.2-1.3-25.6c6.7-7.5,18.2-8,25.6-1.3c0.4,0.4,0.8,0.8,1.2,1.2
			l4.6,4.6l5.6,5.6l8.3-8.3L89.8,40.1z"/>
		<path class="st1" d="M81.3,127.6l-4.4,4.4c-7.1,7-18.6,7-25.7-0.1c-3.3-3.4-5.2-7.9-5.2-12.6c0-4.8,1.9-9.5,5.3-12.8l4.4-4.4
			l-8.3-8.4L43,98.1c-11.7,11.7-11.7,30.5,0,42.2l0,0l0,0c11.6,11.7,30.5,11.7,42.1,0.1l0.1-0.1l4.4-4.4L81.3,127.6z"/>
		<path class="st1" d="M147.8,35.5L147.8,35.5c-11.6-11.7-30.5-11.7-42.1-0.1l-0.1,0.1L101,40l8.3,8.3l4.6-4.6
			c3.4-3.4,8-5.3,12.8-5.3c4.8,0,9.5,1.9,12.8,5.3c7.1,7.1,7.1,18.6,0,25.7l0,0l-4.6,4.5l-5.7,5.7l8.3,8.2l5.7-5.7l4.6-4.6
			C159.4,66,159.4,47.2,147.8,35.5z"/>
		<polygon class="st2" points="129.3,79.7 124.3,74.6 109.3,59.6 101.1,67.9 116,82.8 121,87.9 95.4,113.6 87.1,121.9 95.4,130.1 
			103.7,121.9 129.3,96.2 137.6,87.9 		"/>
		<polygon class="st3" points="103.7,54 95.4,45.7 87.1,54 61.5,79.7 53.2,87.9 61.5,96.2 67.2,101.8 82.1,116.8 90.4,108.5 
			75.4,93.5 69.7,87.9 95.4,62.2 		"/>
	</g>
	<g>
		<path class="st1" d="M206.5,76.2c-1.5-1.6-3.3-2.8-5.4-3.7c-2.2-0.9-4.4-1.4-6.7-1.4s-4.6,0.5-6.7,1.4c-2.1,0.8-3.9,2.2-5.5,3.7
			c-1.5,1.5-2.8,3.3-3.7,5.4s-1.4,4.4-1.4,6.7s0.5,4.6,1.4,6.7c0.8,2,2.2,3.8,3.7,5.4c1.6,1.5,3.5,2.8,5.5,3.7
			c2.1,0.9,4.4,1.4,6.7,1.4s4.6-0.5,6.7-1.4c2-0.8,3.8-2.1,5.4-3.7c1.5-1.6,2.8-3.5,3.7-5.4c0.9-2.1,1.4-4.4,1.4-6.7
			c0.1-2.3-0.5-4.6-1.4-6.7C209.3,79.5,208,77.7,206.5,76.2z M203.4,92c-1,2.3-2.9,4.2-5.2,5.2c-2.4,1-5.2,1-7.6,0
			c-1.2-0.6-2.2-1.3-3-2.2c-0.9-0.9-1.6-2-2.2-3c-0.6-1.3-0.8-2.5-0.8-3.8s0.3-2.7,0.8-3.7c1-2.3,2.9-4.2,5.2-5.2c2.4-1,5.2-1,7.6,0
			c1.2,0.6,2.2,1.3,3,2.2c0.9,0.8,1.6,2,2.2,3c0.6,1.3,0.8,2.4,0.8,3.7C204.2,89.5,203.8,90.7,203.4,92z"/>
		<path class="st1" d="M504.1,76.2c-1.5-1.6-3.3-2.8-5.4-3.7c-2.2-0.9-4.4-1.4-6.7-1.4c-2.3,0-4.6,0.5-6.7,1.4
			c-2.1,0.8-3.9,2.2-5.5,3.7c-1.5,1.5-2.8,3.3-3.7,5.4c-0.9,2.1-1.4,4.4-1.4,6.7s0.5,4.6,1.4,6.7c0.8,2,2.2,3.8,3.7,5.4
			c1.6,1.5,3.5,2.8,5.5,3.7c2.1,0.9,4.4,1.4,6.7,1.4c2.3,0,4.6-0.5,6.7-1.4c2-0.8,3.8-2.1,5.4-3.7c1.5-1.6,2.8-3.5,3.7-5.4
			c0.9-2.1,1.4-4.4,1.4-6.7c0.1-2.3-0.5-4.6-1.4-6.7S505.6,77.7,504.1,76.2z M501,92c-1,2.3-2.9,4.2-5.2,5.2c-2.4,1-5.2,1-7.6,0
			c-1.2-0.6-2.2-1.3-3-2.2c-0.9-0.9-1.6-2-2.2-3c-0.6-1.3-0.8-2.5-0.8-3.8s0.3-2.7,0.8-3.7c1-2.3,2.9-4.2,5.2-5.2c2.4-1,5.2-1,7.6,0
			c1.2,0.6,2.2,1.3,3,2.2c0.9,0.8,1.6,2,2.2,3c0.6,1.3,0.8,2.4,0.8,3.7C501.8,89.5,501.5,90.7,501,92z"/>
		<path class="st1" d="M581.3,89.2L581.3,89.2v-0.5C581.3,89,581.3,89.1,581.3,89.2z"/>
		<path class="st1" d="M244.2,76c-1.5-1.5-3.3-2.8-5.3-3.6c-2.1-0.9-4.3-1.4-6.6-1.4c-1.7,0-3.5,0.3-5.1,0.8
			c-1.2,0.3-2.2,0.8-3.2,1.5c-0.3,0.2-0.9,0.1-1.2-0.3c-0.1-0.1-0.1-0.3-0.1-0.5l0,0c0-0.5-0.3-0.9-0.9-0.9h-5.5
			c-0.5,0-0.8,0.3-0.8,0.8v0.1v39.2c0,0.5,0.3,0.8,0.8,0.8l0,0h5.5c0.5,0,0.8-0.3,0.9-0.8v-0.1V87.7c0-1.3,0.2-2.7,0.8-3.7
			c0.5-1.2,1.2-2.2,2.1-3c0.8-0.9,2-1.6,3-2.2c1.3-0.5,2.4-0.8,3.7-0.8s2.7,0.2,3.7,0.8c1.2,0.6,2.2,1.3,3,2.2c0.8,0.8,1.6,2,2.1,3
			c0.6,1.3,0.8,2.4,0.8,3.7s-0.2,2.7-0.8,3.7s-1.3,2.2-2.1,3c-0.9,0.9-2,1.6-3,2.1c-1.3,0.6-2.4,0.8-3.7,0.8h-1.8
			c-0.5,0-0.8,0.3-0.8,0.8l0,0v5.5c0,0.5,0.3,0.8,0.8,0.9h0.1h1.8c2.3,0,4.5-0.5,6.6-1.4c2-0.8,3.8-2.1,5.3-3.6s2.8-3.3,3.7-5.3
			c1.7-4.2,1.7-8.9,0-13.2C247,79.3,245.8,77.6,244.2,76z"/>
		<path class="st1" d="M466.5,76c-1.5-1.5-3.3-2.8-5.3-3.6c-2.1-0.9-4.3-1.4-6.6-1.4c-1.7,0-3.5,0.3-5.1,0.8
			c-1.2,0.3-2.2,0.8-3.2,1.5c-0.3,0.2-0.9,0.1-1.2-0.3c-0.1-0.1-0.1-0.3-0.1-0.5l0,0c0-0.5-0.3-0.9-0.9-0.9h-5.5
			c-0.5,0-0.8,0.3-0.8,0.8v0.1v39.2c0,0.5,0.3,0.8,0.8,0.8l0,0h5.5c0.5,0,0.8-0.3,0.9-0.8v-0.1V87.7c0-1.3,0.2-2.7,0.8-3.7
			c0.5-1.2,1.2-2.2,2.1-3c0.8-0.9,2-1.6,3-2.2c1.3-0.5,2.4-0.8,3.7-0.8c1.3,0,2.7,0.2,3.7,0.8c1.2,0.6,2.2,1.3,3,2.2
			c0.8,0.8,1.6,2,2.1,3c0.6,1.3,0.8,2.4,0.8,3.7s-0.2,2.7-0.8,3.7c-0.6,1-1.3,2.2-2.1,3c-0.9,0.9-2,1.6-3,2.1
			c-1.3,0.6-2.4,0.8-3.7,0.8h-1.8c-0.5,0-0.8,0.3-0.8,0.8l0,0v5.5c0,0.5,0.3,0.8,0.8,0.9h0.1h1.8c2.3,0,4.5-0.5,6.6-1.4
			c2-0.8,3.8-2.1,5.3-3.6s2.8-3.3,3.7-5.3c1.7-4.2,1.7-8.9,0-13.2C469.3,79.3,468.1,77.6,466.5,76z"/>
		<path class="st1" d="M281.1,76.2c-1.5-1.6-3.3-2.8-5.4-3.7c-4.3-1.8-9-1.8-13.3,0c-6.3,2.7-10.5,8.9-10.4,15.7
			c0,2.3,0.5,4.5,1.3,6.7c0.8,2.1,2.2,3.9,3.7,5.4s3.3,2.8,5.4,3.7c3.5,1.5,7.5,1.7,11.2,0.8c1.4-0.3,2.8-1,3.9-1.7
			c1.3-0.7,2.4-1.6,3.5-2.7c0.6-0.6,1.3-1.3,1.7-2c0.2-0.3,0.1-1-0.2-1.3c-0.1-0.1-0.3-0.1-0.3-0.1h-8.9c-1.3,0.6-2.7,0.9-4.2,0.9
			c-1,0-2-0.1-3-0.3c-0.9-0.3-1.8-0.8-2.7-1.3c-0.8-0.6-1.5-1.2-2.1-2c-0.3-0.3-0.6-0.8-0.8-1.2c-0.3-0.3-0.1-0.9,0.1-1.2
			c0.1-0.1,0.3-0.1,0.6-0.1h23.6c0.5,0,0.8-0.3,0.9-0.7c0.1-1,0.2-2,0.2-3C286.2,83.6,284.5,79.2,281.1,76.2L281.1,76.2z
			 M261.4,84.5c-0.5,0.1-0.8-0.3-0.9-0.8c0-0.2,0-0.3,0.1-0.6c0.2-0.5,0.5-0.8,0.8-1.2c0.6-0.8,1.3-1.4,2.1-2c0.8-0.6,1.7-1,2.7-1.3
			c2-0.6,3.9-0.6,5.9,0c0.9,0.3,1.8,0.7,2.7,1.3c0.8,0.6,1.5,1.3,2.1,2c0.3,0.3,0.6,0.8,0.8,1.2c0.3,0.3,0.1,0.9-0.1,1.2
			c-0.1,0.1-0.3,0.1-0.6,0.1L261.4,84.5L261.4,84.5z"/>
		<path class="st1" d="M392.1,76.2c-1.5-1.6-3.3-2.8-5.4-3.7c-4.3-1.8-9-1.8-13.3,0c-6.3,2.7-10.5,8.9-10.4,15.7
			c0,2.3,0.5,4.5,1.3,6.7c0.8,2.1,2.2,3.9,3.7,5.4s3.3,2.8,5.4,3.7c3.5,1.5,7.5,1.7,11.2,0.8c1.4-0.3,2.8-1,3.9-1.7
			c1.3-0.7,2.4-1.6,3.5-2.7c0.6-0.6,1.3-1.3,1.7-2c0.2-0.3,0.1-1-0.2-1.3c-0.1-0.1-0.3-0.1-0.3-0.1h-8.9c-1.3,0.6-2.7,0.9-4.2,0.9
			c-1,0-2-0.1-3-0.3c-0.9-0.3-1.8-0.8-2.7-1.3c-0.8-0.6-1.5-1.2-2.1-2c-0.3-0.3-0.6-0.8-0.8-1.2c-0.3-0.3-0.1-0.9,0.1-1.2
			c0.1-0.1,0.3-0.1,0.6-0.1h23.6c0.5,0,0.8-0.3,0.9-0.7c0.1-1,0.2-2,0.2-3C397.1,83.6,395.3,79.2,392.1,76.2L392.1,76.2z
			 M372.4,84.5c-0.5,0.1-0.8-0.3-0.9-0.8c0-0.2,0-0.3,0.1-0.6c0.2-0.5,0.5-0.8,0.8-1.2c0.6-0.8,1.3-1.4,2.1-2c0.8-0.6,1.7-1,2.7-1.3
			c2-0.6,3.9-0.6,5.9,0c0.9,0.3,1.8,0.7,2.7,1.3c0.8,0.6,1.5,1.3,2.1,2c0.3,0.3,0.6,0.8,0.8,1.2c0.3,0.3,0.1,0.9-0.1,1.2
			c-0.1,0.1-0.3,0.1-0.6,0.1L372.4,84.5L372.4,84.5z"/>
		<path class="st1" d="M318.6,75.7c-1.5-1.5-3.2-2.7-5.1-3.5c-2-0.8-3.9-1.3-6.1-1.3c-2.1,0-4,0.3-6,1.2c-1.3,0.6-2.4,1.3-3.6,2.1
			c-0.3,0.3-0.9,0.2-1.3-0.1c-0.1-0.1-0.1-0.3-0.1-0.6v-0.9c0-0.5-0.3-0.8-0.8-0.9h-0.1h-5.4c-0.5,0-0.8,0.3-0.8,0.8v0.1v31.1
			c0,0.5,0.3,0.8,0.8,0.9h0.1h5.7c0.5,0,0.9-0.3,0.9-0.9V87.3c0-1.3,0.2-2.7,0.8-3.7c1-2.3,2.8-4.2,5.1-5.1c1.2-0.6,2.4-0.8,3.7-0.8
			s2.7,0.3,3.7,0.8c2.3,1,4.2,2.8,5.1,5.1c0.6,1.2,0.8,2.4,0.8,3.7v16.5c0,0.5,0.3,0.9,0.9,0.9h5.7c0.5,0,0.8-0.3,0.8-0.8v-0.1v-17
			c0-2.2-0.3-4.2-1.3-6.2C321.2,79,320.1,77.1,318.6,75.7z"/>
		<path class="st1" d="M531.3,71.6c0-0.2-0.2-0.5-0.5-0.5c-2,0-3.9,0.3-5.8,1.2c-1.3,0.6-2.4,1.3-3.6,2.1c-0.3,0.3-0.9,0.2-1.3-0.1
			c-0.1-0.1-0.1-0.3-0.1-0.6v-0.9c0-0.5-0.3-0.8-0.8-0.9h-5.8c-0.5,0-0.8,0.3-0.8,0.8V104c0,0.5,0.3,0.8,0.8,0.9h5.8
			c0.5,0,0.9-0.3,0.9-0.9V87.4c0-1.3,0.2-2.7,0.8-3.7c1-2.3,2.8-4.2,5.1-5.1c1.2-0.6,2.4-0.8,3.7-0.8c0.3,0,0.7,0,1,0.1
			c0.2,0,0.2,0,0.3,0s0.1-0.2,0.1-0.2v-6.1H531.3z"/>
		<path class="st1" d="M331.2,100.1c3.2,3.1,7.4,4.8,11.9,5c1.7,0,3.5-0.3,5.1-0.8c1.2-0.3,2.2-0.8,3.2-1.5c0.3-0.3,0.9-0.1,1.2,0.1
			c0.1,0.1,0.1,0.3,0.1,0.6l0,0c0,0.5,0.3,0.9,0.9,0.9h5.4c0.5,0,0.9-0.3,0.9-0.9V64.2c0-0.5-0.3-0.8-0.8-0.8H359h-5.4
			c-0.5,0-0.8,0.3-0.9,0.8v0.1v23.9c0,1.3-0.2,2.7-0.8,3.7c-0.5,1.2-1.2,2.2-2.1,3c-0.9,0.9-2,1.6-3,2.2c-2.4,1-5.1,1-7.5,0
			c-1.2-0.6-2.2-1.3-3-2.2c-0.9-0.8-1.6-2-2.1-3c-0.6-1.2-0.8-2.4-0.8-3.7s0.3-2.7,0.8-3.7c1-2.3,2.8-4.2,5.1-5.1
			c1.2-0.5,2.4-0.8,3.7-0.8h1.8c0.5,0,0.8-0.3,0.9-0.8v-0.1v-5.5c0-0.5-0.3-0.9-0.9-0.9H343c-2.2,0-4.4,0.5-6.5,1.4
			c-2,0.8-3.8,2.1-5.3,3.6s-2.8,3.3-3.7,5.3c-1.8,4.2-1.8,8.9,0,13.2C328.4,96.7,329.7,98.6,331.2,100.1z"/>
		<path class="st1" d="M427.2,71.7h6.3c0.5,0,0.7,0.3,0.5,0.9l-14.4,31.1c-0.2,0.5-0.8,0.9-1.3,0.9H412c-0.5,0-0.7-0.3-0.5-0.9
			l14.4-31.1C426,72.2,426.6,71.7,427.2,71.7z"/>
		<path class="st1" d="M402.7,71.7h-6.3c-0.5,0-0.7,0.3-0.5,0.9l14.4,31.1c0.2,0.5,0.8,0.9,1.3,0.9h6.3c0.5,0,0.7-0.3,0.5-0.9
			L404,72.6C403.8,72.2,403.2,71.7,402.7,71.7z"/>
		<path class="st1" d="M541.9,79v9.9c0,1.2,0.2,2.2,0.7,3.2c0.6,1.2,1.3,2.1,2.1,3s1.8,1.6,3,2.1c1,0.5,2.2,0.7,3.3,0.7
			c0.2,0,0.3,0.2,0.3,0.5v6.5c0,0.2-0.2,0.5-0.5,0.5c-2.1,0-4.2-0.5-6-1.4c-1.2-0.5-2.2-1-3.1-1.7c-0.8-0.6-1.6-1.2-2.3-1.8
			c-1.5-1.6-2.8-3.5-3.6-5.4c-0.9-2-1.4-4.2-1.4-6.5V64.1c0-0.5,0.3-0.8,0.8-0.8h5.5c0.5,0,0.8,0.3,0.9,0.8c0,0,0,3.1,0,7.5h9.1
			c0.3,0,0.6,0.2,0.6,0.6v6c0,0.3-0.2,0.6-0.6,0.6h-9V79H541.9z"/>
		<path class="st1" d="M609,98.3c0-0.2-0.2-0.3-0.3-0.5c-1.2,0-2.3-0.2-3.3-0.7c-1.2-0.5-2.2-1.2-3-2.1c-0.9-0.9-1.6-1.8-2.1-3
			c-0.5-1-0.7-2.2-0.7-3.2c0-11.2,0-24.7,0-24.7c-0.1-0.5-0.5-0.8-0.9-0.8h-5.5c-0.5,0-0.8,0.3-0.8,0.8v24.3c0,2.2,0.5,4.4,1.4,6.5
			c0.8,2,2.1,3.8,3.6,5.4c0.7,0.7,1.5,1.3,2.3,1.8c1,0.7,2,1.3,3.1,1.7c1.8,0.8,3.9,1.3,6,1.4c0.2,0,0.5-0.2,0.5-0.5v-6.6H609V98.3z
			"/>
		<path class="st1" d="M588.7,88.2v15.7c0,0.5-0.5,0.8-0.8,0.8h-5.7c-0.5,0-0.8-0.2-0.9-0.7V88.9c0-0.2,0-0.5,0-0.7
			c0-1.3-0.2-2.5-0.8-3.7s-1.3-2.2-2.2-3c-0.8-0.9-2-1.6-3-2.2c-2.4-1-5.2-1-7.6,0c-2.3,1-4.2,2.9-5.2,5.2c-0.5,1.2-0.8,2.4-0.8,3.7
			c0,1.3,0.2,2.5,0.8,3.8c0.6,1.2,1.3,2.1,2.2,3c0.8,0.9,2,1.6,3,2.2c1.8,0.7,3.9,0.9,5.8,0.6c0.5-0.1,0.8,0.2,0.8,0.7v6
			c0,0.5-0.3,0.8-0.8,0.9c-0.7,0.1-1.3,0.1-2,0.1c-2.3,0-4.6-0.5-6.7-1.4c-2.1-0.9-3.9-2.1-5.5-3.7c-1.5-1.6-2.8-3.5-3.7-5.4
			c-0.9-2.1-1.4-4.4-1.4-6.7s0.5-4.6,1.4-6.7s2.2-3.9,3.7-5.4c1.6-1.5,3.5-2.9,5.5-3.7c2.1-0.9,4.4-1.4,6.7-1.4s4.5,0.5,6.7,1.4
			c2.1,0.8,3.9,2.1,5.4,3.7c1.5,1.5,2.8,3.3,3.7,5.4C588.2,83.6,588.8,85.9,588.7,88.2z"/>
	</g>
</g>
</svg>
