<?xml version="1.0" encoding="utf-8"?>
<!-- Generator: Adobe Illustrator 24.2.1, SVG Export Plug-In . SVG Version: 6.00 Build 0)  -->
<svg version="1.1" id="bcf584b3-8033-4e5c-a564-1a98c3e84e1e"
	 xmlns="http://www.w3.org/2000/svg" xmlns:xlink="http://www.w3.org/1999/xlink" x="0px" y="0px" viewBox="0 0 620 160"
	 style="enable-background:new 0 0 620 160;" xml:space="preserve">
<style type="text/css">
	.st0{fill:#191136;}
	.st1{fill:#449FD8;}
	.st2{fill:#416AD9;}
</style>
<g>
	<g>
		<path class="st0" d="M121.3,88.1l-3.2-3.2l-6.6,6.6l3.2,3.2c2.7,2.7,4.2,6.3,4.2,10.2c0,3.8-1.5,7.4-4.2,10.1
			c-2.7,2.7-6.3,4.2-10.2,4.2s-7.4-1.5-10.1-4.2l-3.3-3.2l-4.8-4.8l-6.6,6.5l4.9,4.9l3.2,3.2c9.2,9.2,24.1,9.2,33.3,0.1l0.1-0.1l0,0
			c9.2-9.2,9.3-24.1,0.2-33.4C121.4,88.1,121.4,88,121.3,88.1z"/>
		<path class="st0" d="M75.5,42.2l-3.7-3.6c-9.2-9.2-24.1-9.2-33.3-0.1l-0.1,0.1l0,0c-9.2,9.1-9.2,24-0.1,33.2
			c0.1,0.1,0.1,0.1,0.1,0.1l3.7,3.7l6.5-6.6L45,65.4c-5.9-5.3-6.3-14.4-1-20.3c5.3-5.9,14.4-6.3,20.3-1c0.3,0.3,0.7,0.7,1,1l3.7,3.7
			l4.4,4.4l6.6-6.6L75.5,42.2z"/>
		<path class="st0" d="M68.7,111.4l-3.5,3.5c-5.6,5.6-14.7,5.5-20.3-0.1c-2.6-2.7-4.1-6.2-4.1-10c0-3.8,1.5-7.5,4.2-10.2l3.5-3.5
			l-6.6-6.6l-3.5,3.5c-9.2,9.2-9.2,24.1,0,33.4l0,0l0,0c9.2,9.2,24.1,9.2,33.3,0.1l0.1-0.1l3.5-3.5L68.7,111.4z"/>
		<path class="st0" d="M121.3,38.6L121.3,38.6c-9.2-9.2-24.1-9.2-33.3-0.1L88,38.6l-3.6,3.5l6.6,6.6l3.6-3.6
			c2.7-2.7,6.3-4.2,10.1-4.2c3.8,0,7.5,1.5,10.2,4.2c5.6,5.6,5.6,14.7,0,20.3l0,0l-3.6,3.5l-4.5,4.5l6.6,6.5l4.5-4.5l3.6-3.6
			C130.5,62.7,130.5,47.8,121.3,38.6z"/>
		<polygon class="st1" points="106.7,73.5 102.7,69.5 90.9,57.6 84.4,64.2 96.1,76 100.1,80 79.9,100.3 73.3,106.8 79.9,113.3 
			86.4,106.8 106.7,86.5 113.2,80 		"/>
		<polygon class="st2" points="86.4,53.2 79.9,46.6 73.3,53.2 53.1,73.5 46.5,80 53.1,86.5 57.5,91 69.3,102.9 75.9,96.3 64,84.5 
			59.6,80 79.9,59.7 		"/>
	</g>
	<g>
		<path class="st0" d="M560.1,63.6l-5-7.6c-0.2-0.5-0.7-0.7-1.2-0.6h-12.4c-0.7,0-1.3,0.7-1.3,1.4c0,0.2,0.1,0.5,0.2,0.6l11,15.9
			c0.5,0.6,1.3,0.7,1.9,0.3c0.1-0.1,0.2-0.2,0.3-0.3l6.3-8.2C560.2,64.6,560.3,64,560.1,63.6z"/>
		<path class="st0" d="M188.1,62.1c-2.3-2.4-5.1-4.3-8.2-5.6c-3.2-1.4-6.6-2.1-10.1-2.1c-3.5,0-6.9,0.7-10.1,2.1
			c-3.1,1.3-5.9,3.2-8.3,5.6c-2.3,2.3-4.2,5.1-5.6,8.2s-2.1,6.6-2.1,10.1s0.7,6.9,2.1,10.1c1.3,3,3.2,5.8,5.6,8.2
			c2.4,2.3,5.2,4.2,8.3,5.6c3.1,1.4,6.6,2.1,10.1,2.1c3.5,0,6.9-0.7,10.1-2.1c3-1.3,5.8-3.1,8.2-5.6c2.3-2.4,4.2-5.2,5.6-8.2
			c1.4-3.1,2.1-6.6,2.1-10.1c0.1-3.5-0.7-6.9-2.1-10.1S190.4,64.4,188.1,62.1z M183.3,86c-1.6,3.5-4.4,6.4-7.9,7.9
			c-3.7,1.5-7.9,1.5-11.6,0c-1.7-0.8-3.4-1.9-4.6-3.2c-1.4-1.4-2.4-2.9-3.2-4.6c-0.8-1.9-1.2-3.8-1.2-5.8c0-2,0.5-3.9,1.2-5.7
			c1.6-3.5,4.4-6.4,7.9-7.9c3.7-1.5,7.9-1.5,11.6,0c1.7,0.8,3.4,1.9,4.6,3.2c1.4,1.3,2.4,2.9,3.2,4.6c0.8,1.9,1.2,3.7,1.2,5.7
			C184.6,82.2,184.1,84.2,183.3,86z"/>
		<path class="st0" d="M245.4,61.8c-2.3-2.3-5.1-4.2-8.1-5.4c-3.1-1.4-6.5-2.1-10-2.1c-2.7,0-5.3,0.5-7.8,1.3
			c-1.7,0.6-3.4,1.3-4.9,2.2c-0.6,0.3-1.4,0.1-1.7-0.5c-0.1-0.2-0.2-0.5-0.1-0.7l0,0c0-0.7-0.6-1.4-1.4-1.4h-8.3
			c-0.7,0-1.3,0.6-1.3,1.3v0.1V116c0,0.7,0.6,1.3,1.3,1.3l0,0h8.3c0.7,0,1.3-0.5,1.4-1.2V116V79.9c0-2,0.3-3.9,1.2-5.7
			c0.7-1.7,1.7-3.2,3.1-4.5c1.3-1.4,2.9-2.4,4.5-3.2c1.9-0.7,3.7-1.2,5.7-1.2s3.9,0.3,5.7,1.2s3.4,1.9,4.6,3.2
			c1.3,1.3,2.4,2.9,3.1,4.5c0.8,1.9,1.2,3.7,1.2,5.7c0,2-0.3,3.9-1.2,5.7c-0.8,1.7-1.9,3.4-3.1,4.6c-1.4,1.4-2.9,2.4-4.6,3.1
			c-1.9,0.8-3.7,1.2-5.7,1.2h-2.8c-0.7,0-1.3,0.6-1.3,1.3l0,0v8.3c0,0.7,0.5,1.3,1.2,1.4h0.1h2.8c3.5,0,6.8-0.7,10-2.1
			c3-1.3,5.8-3.1,8.1-5.4c2.3-2.3,4.2-5.1,5.6-8.1c2.7-6.4,2.7-13.5,0-19.9C249.5,66.9,247.7,64.1,245.4,61.8z"/>
		<path class="st0" d="M301.3,62.1c-2.3-2.4-5.1-4.3-8.2-5.6c-6.5-2.8-13.7-2.8-20.1,0c-9.6,4.1-15.9,13.4-15.7,23.9
			c0,3.5,0.7,6.8,2,10.1c1.3,3.1,3.2,5.9,5.6,8.2c2.3,2.3,5.1,4.2,8.2,5.6c5.3,2.3,11.3,2.7,16.9,1.2c2.1-0.6,4.2-1.5,6-2.5
			c2-1,3.7-2.4,5.2-3.9c0.9-0.9,1.9-2,2.7-3c0.3-0.6,0.2-1.5-0.3-1.9c-0.2-0.1-0.5-0.2-0.6-0.2h-13.5c-2,0.9-4.1,1.4-6.3,1.4
			c-1.5,0-3-0.2-4.5-0.6c-1.4-0.5-2.8-1.2-3.9-2c-1.2-0.8-2.3-1.7-3.1-2.9c-0.5-0.5-0.9-1.2-1.3-1.7c-0.5-0.6-0.2-1.4,0.2-1.7
			c0.2-0.2,0.6-0.2,0.9-0.2h35.9c0.7,0,1.2-0.5,1.4-1c0.2-1.5,0.3-3,0.3-4.5C309.1,73.3,306.3,66.7,301.3,62.1L301.3,62.1z
			 M271.4,74.7c-0.7,0.1-1.3-0.5-1.4-1.2c0-0.3,0-0.6,0.2-0.9c0.3-0.7,0.7-1.3,1.3-1.7c0.8-1.2,2-2.1,3.1-2.9s2.5-1.5,3.9-1.9
			c2.9-0.9,6-0.9,8.9,0c1.4,0.5,2.8,1,3.9,1.9s2.2,1.9,3.1,2.9c0.5,0.5,0.9,1.2,1.3,1.7c0.5,0.6,0.2,1.4-0.2,1.7
			c-0.2,0.2-0.6,0.2-0.9,0.2h-23.3V74.7z"/>
		<path class="st0" d="M469.6,62.1c-2.3-2.4-5.1-4.3-8.2-5.6c-6.5-2.8-13.7-2.8-20.1,0c-9.6,4.1-15.9,13.4-15.7,23.9
			c0,3.5,0.7,6.8,2,10.1c1.3,3.1,3.2,5.9,5.6,8.2c2.3,2.3,5.1,4.2,8.2,5.6c5.3,2.3,11.3,2.7,16.9,1.2c2.1-0.6,4.2-1.5,6-2.5
			c2-1,3.7-2.4,5.2-3.9c0.9-0.9,1.9-2,2.7-3c0.3-0.6,0.2-1.5-0.3-1.9c-0.2-0.1-0.5-0.2-0.6-0.2h-13.5c-2,0.9-4.1,1.4-6.3,1.4
			c-1.5,0-3-0.2-4.5-0.6c-1.4-0.5-2.8-1.2-3.9-2c-1.2-0.8-2.3-1.7-3.1-2.9c-0.5-0.5-0.9-1.2-1.3-1.7c-0.5-0.6-0.2-1.4,0.2-1.7
			c0.2-0.2,0.6-0.2,0.9-0.2h35.9c0.7,0,1.2-0.5,1.4-1c0.2-1.5,0.3-3,0.3-4.5C477.2,73.3,474.5,66.7,469.6,62.1L469.6,62.1z
			 M439.7,74.7c-0.7,0.1-1.3-0.5-1.4-1.2c0-0.3,0-0.6,0.2-0.9c0.3-0.7,0.7-1.3,1.3-1.7c0.8-1.2,2-2.1,3.1-2.9s2.5-1.5,3.9-1.9
			c2.9-0.9,6-0.9,8.9,0c1.4,0.5,2.8,1,3.9,1.9s2.2,1.9,3.1,2.9c0.5,0.5,0.9,1.2,1.3,1.7c0.5,0.6,0.2,1.4-0.2,1.7
			c-0.2,0.2-0.6,0.2-0.9,0.2h-23.3V74.7z"/>
		<path class="st0" d="M358.2,61.4c-2.2-2.2-4.9-3.9-7.6-5.2c-2.9-1.3-6-1.9-9.3-1.9c-3.1,0-6.1,0.6-9,1.7c-2,0.8-3.7,1.9-5.4,3.1
			c-0.6,0.5-1.4,0.3-1.9-0.2c-0.2-0.2-0.2-0.5-0.2-0.8v-1.4c0-0.7-0.5-1.3-1.2-1.4h-0.1h-8.6c-0.7,0-1.3,0.6-1.3,1.3v0.1V104
			c0,0.7,0.5,1.3,1.2,1.4h0.1h8.6c0.7,0,1.4-0.6,1.4-1.4V79c0-2,0.3-3.9,1.2-5.7c1.5-3.5,4.3-6.4,7.8-7.8c1.7-0.8,3.7-1.3,5.7-1.3
			s3.9,0.5,5.7,1.3c3.5,1.5,6.4,4.3,7.8,7.8C353.6,75,354,77,354,79v25c0,0.7,0.6,1.4,1.4,1.4h8.6c0.7,0,1.3-0.6,1.3-1.3V104V78.3
			c0-3.2-0.6-6.4-1.9-9.4C362,66.2,360.4,63.6,358.2,61.4z"/>
		<path class="st0" d="M377.2,98.3c4.9,4.7,11.2,7.4,17.9,7.5c2.7,0,5.3-0.5,7.8-1.3c1.7-0.5,3.4-1.3,4.9-2.2
			c0.6-0.5,1.4-0.2,1.7,0.2c0.2,0.2,0.2,0.6,0.2,0.9l0,0c0,0.7,0.6,1.4,1.4,1.4h8.2c0.7,0,1.4-0.6,1.4-1.4V44c0-0.7-0.6-1.3-1.3-1.3
			h-0.1h-8.2c-0.7,0-1.3,0.5-1.4,1.2V44v36.1c0,2-0.3,3.9-1.2,5.7c-0.7,1.7-1.7,3.2-3.1,4.5c-1.4,1.4-2.9,2.4-4.6,3.2
			c-3.6,1.5-7.8,1.5-11.3,0c-1.7-0.8-3.4-1.9-4.6-3.2c-1.4-1.3-2.4-2.9-3.1-4.5c-0.8-1.7-1.3-3.7-1.3-5.7c0-2,0.5-3.9,1.3-5.7
			c1.5-3.5,4.3-6.4,7.8-7.8c1.7-0.7,3.7-1.2,5.6-1.2h2.8c0.7,0,1.3-0.5,1.4-1.2v-0.1V56c0-0.7-0.6-1.4-1.4-1.4H395
			c-3.4,0-6.7,0.7-9.8,2.1c-3,1.3-5.8,3.1-8.1,5.4s-4.3,5.1-5.6,8.1c-2.8,6.4-2.8,13.5,0,19.9C373,93.2,375,96,377.2,98.3z"/>
		<path class="st0" d="M522.7,55.2h9.6c0.7,0,1,0.6,0.7,1.4l-21.9,47.2c-0.3,0.7-1.3,1.4-2,1.4h-9.6c-0.7,0-1-0.6-0.7-1.4l21.9-47.2
			C521.1,55.9,521.9,55.2,522.7,55.2z"/>
		<path class="st0" d="M485.7,55.2H476c-0.7,0-1,0.6-0.7,1.4l21.9,47.2c0.3,0.7,1.3,1.4,2,1.4h9.6c0.7,0,1-0.6,0.7-1.4l-21.9-47.2
			C487.3,55.9,486.4,55.2,485.7,55.2z"/>
		<path class="st0" d="M587.1,55.2h-12.5c-0.5,0-0.8,0.2-1,0.6l-33,47.2c-0.3,0.6-0.2,1.5,0.3,1.9c0.2,0.1,0.5,0.2,0.6,0.2H554
			c0.5,0,0.8-0.2,1.2-0.6l8-12.6c0.3-0.6,1.3-0.8,1.9-0.5c0.1,0.1,0.3,0.2,0.5,0.5l8.1,12.6c0.2,0.3,0.6,0.6,1,0.6h12.5
			c0.7,0,1.4-0.6,1.4-1.4c0-0.2-0.1-0.5-0.2-0.7l-15.5-22.2c-0.3-0.3-0.3-1,0-1.5l15.5-22.2c0.3-0.7,0.1-1.5-0.6-1.9
			C587.4,55.3,587.3,55.2,587.1,55.2z"/>
	</g>
</g>
</svg>
